<svg xmlns="http://www.w3.org/2000/svg" id="canvas" width="1300" height="695" viewBox="1990 2320 1300 695" style="position:fixed;overflow:hidden;top:0px;left:0px;width:100%;height:100%;pointer-events:all;user-select:none;-webkit-user-select:none;-moz-user-select:none;font-family:Inter, arial, sans-serif;cursor:default;touch-action:none;outline:none"><defs><marker id="arrowhead" refX="1" refY="3" orient="auto" markerWidth="8" markerHeight="8"><path d="M2.91922181,1.64495663 L4.49787879,4.07365967 C4.64837316,4.30518948 4.58268096,4.61488128 4.35115115,4.76537565 C4.27004602,4.81809399 4.17538993,4.84615385 4.07865698,4.84615385 L0.921343022,4.84615385 C0.645200647,4.84615385 0.421343022,4.62229622 0.421343022,4.34615385 C0.421343022,4.24942089 0.44940288,4.1547648 0.502121214,4.07365967 L2.08077819,1.64495663 C2.23127257,1.41342682 2.54096436,1.34773462 2.77249418,1.498229 C2.83112579,1.53633954 2.88111126,1.58632502 2.91922181,1.64495663 Z" fill="#9babcf" transform="translate(2.500000, 2.923077) rotate(90.000000) translate(-2.500000, -2.923077)"></path></marker><marker id="arrowhead-selected" refX="1" refY="3" orient="auto" markerWidth="10" markerHeight="10"><path d="M2.91922181,1.64495663 L4.49787879,4.07365967 C4.64837316,4.30518948 4.58268096,4.61488128 4.35115115,4.76537565 C4.27004602,4.81809399 4.17538993,4.84615385 4.07865698,4.84615385 L0.921343022,4.84615385 C0.645200647,4.84615385 0.421343022,4.62229622 0.421343022,4.34615385 C0.421343022,4.24942089 0.44940288,4.1547648 0.502121214,4.07365967 L2.08077819,1.64495663 C2.23127257,1.41342682 2.54096436,1.34773462 2.77249418,1.498229 C2.83112579,1.53633954 2.88111126,1.58632502 2.91922181,1.64495663 Z" fill="#3366FF" transform="translate(2.500000, 2.923077) rotate(90.000000) translate(-2.500000, -2.923077) "></path></marker><pattern id="error-pattern" patternUnits="userSpaceOnUse" patternTransform="rotate(45 0 0)" width="5" height="5"><line x1="0" y1="0" x2="0" y2="5" stroke="#db4324" stroke-width="1"></line></pattern></defs><g id="wrapper" transform="translate(0, 0) scale(1)"><g transform="translate(2534, 2480)"><mask id="ctr_d5X5ofrPEd5xx0NW5CFx8-mask"><rect x="-3" y="-3" width="336" height="446" fill="white"></rect><rect x="85.9625" y="-3" width="158.075" height="6" fill="black"></rect></mask><rect width="322" height="430" fill="#fafcfe" stroke="#ccdaf9" stroke-width="2px" stroke-opacity="1" rx="10" ry="10" mask="url(#ctr_d5X5ofrPEd5xx0NW5CFx8-mask)"></rect><g><rect width="16" height="16" x="-8" y="-8" fill="transparent"></rect><rect width="16" height="16" x="322" y="-8" fill="transparent"></rect><rect width="16" height="16" x="-8" y="432" fill="transparent"></rect><rect width="16" height="16" x="322" y="432" fill="transparent"></rect><rect width="16" height="424" x="-8" y="8" fill="transparent"></rect><rect width="16" height="424" x="322" y="8" fill="transparent"></rect><rect width="314" height="16" x="8" y="-8" fill="transparent"></rect><rect width="314" height="16" x="8" y="432" fill="transparent"></rect></g><g><g transform="translate(85.9625, -10)"><svg viewBox="0 0 50 50" width="22" height="22"><svg id="oCB0Wed0vwMIXdzWbpogY" xmlns="http://www.w3.org/2000/svg" viewBox="4.2 4.76 41.53 40.41" width="50" height="50"><g fill="none" fill-rule="evenodd"><g clip-path="url(#BxWjVAN5GvsQZjDZQzalA)"><path fill="#326CE5" d="M24.868 6.62c-.335.017-.663.1-.965.245L10.73 13.159a2.49 2.49 0 0 0-1.363 1.695l-3.25 14.138a2.478 2.478 0 0 0 .485 2.115l9.118 11.337a2.515 2.515 0 0 0 1.97.94l14.622-.004a2.535 2.535 0 0 0 1.97-.938l9.114-11.339a2.49 2.49 0 0 0 .487-2.114L40.628 14.85a2.49 2.49 0 0 0-1.363-1.694L26.09 6.865c-.38-.182-.8-.266-1.222-.245Z"></path><path fill="#fff" d="M24.861 5.597c-.353.018-.699.106-1.017.26L9.936 12.498c-.36.172-.676.422-.925.732-.25.31-.425.671-.514 1.057l-3.43 14.926a2.617 2.617 0 0 0 .512 2.232l9.625 11.968a2.656 2.656 0 0 0 2.08.993l15.435-.004a2.677 2.677 0 0 0 2.079-.99l9.622-11.97a2.63 2.63 0 0 0 .514-2.231l-3.436-14.927a2.629 2.629 0 0 0-1.438-1.787L26.151 5.854a2.678 2.678 0 0 0-1.29-.257Zm.007 1.024c.421-.021.841.063 1.222.244l13.174 6.291a2.515 2.515 0 0 1 1.363 1.695l3.255 14.139a2.48 2.48 0 0 1-.487 2.114l-9.114 11.338a2.515 2.515 0 0 1-1.97.939l-14.622.003a2.537 2.537 0 0 1-1.97-.94L6.603 31.107a2.487 2.487 0 0 1-.485-2.114l3.25-14.138a2.49 2.49 0 0 1 .486-1.002c.236-.294.536-.53.877-.693l13.173-6.295c.302-.144.63-.227.965-.244Z"></path><path fill="#fff" d="M24.026 34.85c-5.417.256-10.025-3.911-10.312-9.327-.288-5.416 3.852-10.047 9.266-10.366 5.415-.32 10.07 3.794 10.42 9.206l-3.897.252a5.955 5.955 0 1 0-5.661 6.334l.184 3.9Z" clip-rule="evenodd"></path><path fill="#fff" d="m26.046 24.375 3.099 7.586 7.155-7.586H26.046Z" clip-rule="evenodd"></path></g><defs><clipPath id="BxWjVAN5GvsQZjDZQzalA"><path fill="#fff" d="M0 0h40v38.813H0z" transform="translate(5 5.593)"></path></clipPath></defs></g></svg></svg></g><text x="113.9625" y="4" font-size="12" font-weight="400" fill="black">OpenFunction Serving</text></g></g><g transform="translate(2589, 2535)"><mask id="ctr_sNUX6WLKrR98OFxmNdW9o-mask"><rect x="-3" y="-3" width="226" height="116" fill="white"></rect><rect x="27.88749999999999" y="-3" width="164.22500000000002" height="6" fill="black"></rect></mask><rect width="212" height="100" fill="#fafcfe" stroke="#ccdaf9" stroke-width="2px" stroke-opacity="1" rx="10" ry="10" mask="url(#ctr_sNUX6WLKrR98OFxmNdW9o-mask)"></rect><g><rect width="16" height="16" x="-8" y="-8" fill="transparent"></rect><rect width="16" height="16" x="212" y="-8" fill="transparent"></rect><rect width="16" height="16" x="-8" y="102" fill="transparent"></rect><rect width="16" height="16" x="212" y="102" fill="transparent"></rect><rect width="16" height="94" x="-8" y="8" fill="transparent"></rect><rect width="16" height="94" x="212" y="8" fill="transparent"></rect><rect width="204" height="16" x="8" y="-8" fill="transparent"></rect><rect width="204" height="16" x="8" y="102" fill="transparent"></rect></g><g><g transform="translate(27.88749999999999, -10)"><svg viewBox="0 0 50 50" width="22" height="22"><svg id="wEDHz5zqTP14ccsCJaMQ-" xmlns="http://www.w3.org/2000/svg" viewBox="4.26 4.76 41.6 40.41" width="50" height="50"><g fill="none" fill-rule="evenodd"><g clip-path="url(#C_iKgrscXtVL_lRqd8ahD)"><path fill="#326CE5" d="M24.94 6.62c-.335.017-.663.1-.965.245l-13.173 6.294a2.49 2.49 0 0 0-1.363 1.695l-3.25 14.138a2.478 2.478 0 0 0 .485 2.115l9.118 11.337a2.515 2.515 0 0 0 1.97.94l14.621-.004a2.535 2.535 0 0 0 1.97-.938l9.114-11.339a2.49 2.49 0 0 0 .487-2.114L40.7 14.85a2.49 2.49 0 0 0-1.363-1.694L26.162 6.865c-.38-.182-.8-.266-1.222-.245Z"></path><path fill="#fff" d="M24.933 5.597c-.353.018-.7.106-1.017.26l-13.908 6.642c-.36.172-.676.422-.925.732-.25.31-.425.671-.514 1.057l-3.43 14.926a2.617 2.617 0 0 0 .512 2.232l9.625 11.968a2.657 2.657 0 0 0 2.079.993l15.436-.004a2.677 2.677 0 0 0 2.079-.99l9.621-11.97a2.628 2.628 0 0 0 .514-2.231L41.57 14.285a2.627 2.627 0 0 0-.514-1.056c-.249-.31-.565-.56-.925-.731L26.224 5.854a2.678 2.678 0 0 0-1.29-.257Zm.007 1.024c.421-.021.841.063 1.221.244l13.175 6.291a2.515 2.515 0 0 1 1.363 1.695l3.255 14.139a2.48 2.48 0 0 1-.487 2.114l-9.114 11.338a2.515 2.515 0 0 1-1.97.939l-14.622.003a2.536 2.536 0 0 1-1.97-.94L6.675 31.107a2.487 2.487 0 0 1-.485-2.114l3.25-14.138a2.49 2.49 0 0 1 .486-1.002c.236-.294.535-.53.876-.693l13.173-6.295c.303-.144.63-.227.966-.244Z"></path><path fill="#fff" d="m17.041 19.374 8.03-2.33 8.031 2.33-8.03 2.329-8.03-2.33zm0 .892v8.544l7.482 4.145.038-10.453-7.52-2.236zm16.061 0v8.544l-7.482 4.145-.037-10.453 7.52-2.236z" clip-rule="evenodd"></path></g><defs><clipPath id="C_iKgrscXtVL_lRqd8ahD"><path fill="#fff" d="M0 0h40v38.813H0z" transform="translate(5.072 5.593)"></path></clipPath></defs></g></svg></svg></g><text x="55.88749999999999" y="4" font-size="12" font-weight="400" fill="black">OpenFunction Function</text></g></g><g transform="translate(2589, 2755)"><mask id="ctr_fLbRuW0TwlFKOK8g4V0A4-mask"><rect x="-3" y="-3" width="226" height="116" fill="white"></rect><rect x="27.88749999999999" y="-3" width="164.22500000000002" height="6" fill="black"></rect></mask><rect width="212" height="100" fill="#fafcfe" stroke="#ccdaf9" stroke-width="2px" stroke-opacity="1" rx="10" ry="10" mask="url(#ctr_fLbRuW0TwlFKOK8g4V0A4-mask)"></rect><g><rect width="16" height="16" x="-8" y="-8" fill="transparent"></rect><rect width="16" height="16" x="212" y="-8" fill="transparent"></rect><rect width="16" height="16" x="-8" y="102" fill="transparent"></rect><rect width="16" height="16" x="212" y="102" fill="transparent"></rect><rect width="16" height="94" x="-8" y="8" fill="transparent"></rect><rect width="16" height="94" x="212" y="8" fill="transparent"></rect><rect width="204" height="16" x="8" y="-8" fill="transparent"></rect><rect width="204" height="16" x="8" y="102" fill="transparent"></rect></g><g><g transform="translate(27.88749999999999, -10)"><svg viewBox="0 0 50 50" width="22" height="22"><svg id="kyssxs5CmFtV18WfBRlA8" xmlns="http://www.w3.org/2000/svg" viewBox="4.26 4.76 41.6 40.41" width="50" height="50"><g fill="none" fill-rule="evenodd"><g clip-path="url(#5jPceAtUZKGghZkx-pmGb)"><path fill="#326CE5" d="M24.94 6.62c-.335.017-.663.1-.965.245l-13.173 6.294a2.49 2.49 0 0 0-1.363 1.695l-3.25 14.138a2.478 2.478 0 0 0 .485 2.115l9.118 11.337a2.515 2.515 0 0 0 1.97.94l14.621-.004a2.535 2.535 0 0 0 1.97-.938l9.114-11.339a2.49 2.49 0 0 0 .487-2.114L40.7 14.85a2.49 2.49 0 0 0-1.363-1.694L26.162 6.865c-.38-.182-.8-.266-1.222-.245Z"></path><path fill="#fff" d="M24.933 5.597c-.353.018-.7.106-1.017.26l-13.908 6.642c-.36.172-.676.422-.925.732-.25.31-.425.671-.514 1.057l-3.43 14.926a2.617 2.617 0 0 0 .512 2.232l9.625 11.968a2.657 2.657 0 0 0 2.079.993l15.436-.004a2.677 2.677 0 0 0 2.079-.99l9.621-11.97a2.628 2.628 0 0 0 .514-2.231L41.57 14.285a2.627 2.627 0 0 0-.514-1.056c-.249-.31-.565-.56-.925-.731L26.224 5.854a2.678 2.678 0 0 0-1.29-.257Zm.007 1.024c.421-.021.841.063 1.221.244l13.175 6.291a2.515 2.515 0 0 1 1.363 1.695l3.255 14.139a2.48 2.48 0 0 1-.487 2.114l-9.114 11.338a2.515 2.515 0 0 1-1.97.939l-14.622.003a2.536 2.536 0 0 1-1.97-.94L6.675 31.107a2.487 2.487 0 0 1-.485-2.114l3.25-14.138a2.49 2.49 0 0 1 .486-1.002c.236-.294.535-.53.876-.693l13.173-6.295c.303-.144.63-.227.966-.244Z"></path><path fill="#fff" d="m17.041 19.374 8.03-2.33 8.031 2.33-8.03 2.329-8.03-2.33zm0 .892v8.544l7.482 4.145.038-10.453-7.52-2.236zm16.061 0v8.544l-7.482 4.145-.037-10.453 7.52-2.236z" clip-rule="evenodd"></path></g><defs><clipPath id="5jPceAtUZKGghZkx-pmGb"><path fill="#fff" d="M0 0h40v38.813H0z" transform="translate(5.072 5.593)"></path></clipPath></defs></g></svg></svg></g><text x="55.88749999999999" y="4" font-size="12" font-weight="400" fill="black">OpenFunction Function</text></g></g><g transform="translate(2090,2420)" width="110" height="110"><g transform="translate(30,30)"><path stroke="none" d="
    M 0, 16.6
    C 0, 2.9299 2.9299, 0 16.6, 0
    L 33.4, 0
    C 47.0701, 0 50, 2.9299 50, 16.6
    L 50, 33.4
    C 50, 47.0701 47.0701, 50 33.4, 50
    L 16.6, 50
    C 2.9299, 50 0, 47.0701 0, 33.4
    L 0, 16.6
  " stroke-width="2" fill="#d5e1fa"></path></g><svg viewBox="0 0 50 50" width="35" height="35" x="37.5" y="37.5"><svg id="FjZ_pxZXul93uUaMHuESz" xmlns="http://www.w3.org/2000/svg" viewBox="4.58 5.08 41.6 40.35" width="50" height="50"><g fill="none" fill-rule="evenodd"><path fill="#326CE5" d="M25.296 5.886c-.354.018-.7.106-1.02.258L10.371 12.79c-.36.172-.677.422-.926.732s-.424.67-.513 1.057L5.5 29.503a2.616 2.616 0 0 0 .512 2.232l9.625 11.967a2.655 2.655 0 0 0 2.08.993l15.435-.004a2.677 2.677 0 0 0 2.079-.99l9.621-11.97a2.627 2.627 0 0 0 .514-2.232l-3.435-14.925a2.628 2.628 0 0 0-.514-1.057 2.655 2.655 0 0 0-.925-.732l-13.908-6.64a2.678 2.678 0 0 0-1.29-.259Z"></path><path fill="#fff" stroke="#fff" stroke-width=".25" d="M25.433 10.966c-.46 0-.832.414-.832.925l.002.023c0 .069-.004.153-.002.213.011.295.075.52.114.791.07.581.128 1.063.092 1.51-.035.17-.16.323-.27.43l-.02.353a10.707 10.707 0 0 0-6.943 3.338 13.973 13.973 0 0 1-.3-.213c-.149.02-.3.066-.495-.048-.372-.251-.712-.597-1.122-1.014-.188-.2-.324-.39-.548-.582-.05-.043-.128-.102-.185-.147a.99.99 0 0 0-.58-.219.802.802 0 0 0-.663.293c-.286.36-.195.91.205 1.228l.012.008c.055.045.122.102.173.14.237.174.453.264.69.403.498.307.91.562 1.238.87.127.136.15.376.167.48l.266.238a10.77 10.77 0 0 0-1.698 7.509l-.349.101c-.091.119-.221.306-.357.361-.428.135-.91.185-1.492.246-.273.023-.51.009-.799.064-.063.012-.152.035-.222.051l-.007.002-.013.004c-.49.118-.805.57-.704 1.013.102.445.58.715 1.074.609l.013-.002.016-.005c.069-.015.155-.032.215-.048.285-.077.49-.189.747-.287.55-.197 1.007-.362 1.451-.427.186-.014.381.115.479.17l.362-.063a10.832 10.832 0 0 0 4.8 5.994l-.15.362c.054.141.114.332.073.471-.161.419-.438.861-.753 1.354-.153.228-.309.405-.446.665-.033.063-.075.158-.107.224-.214.458-.057.985.354 1.183.413.2.927-.01 1.149-.47l.001-.001v-.002c.032-.065.077-.15.104-.212.118-.27.157-.501.24-.763.22-.553.34-1.133.644-1.495.083-.099.218-.137.359-.175l.188-.341a10.754 10.754 0 0 0 7.681.02c.053.093.152.274.178.32.143.046.299.07.425.258.227.387.382.845.571 1.4.083.26.124.492.242.762.027.062.072.148.103.213.222.46.737.671 1.151.472.41-.198.568-.725.354-1.183-.032-.066-.076-.162-.108-.224-.138-.26-.294-.436-.447-.663-.315-.493-.576-.903-.738-1.322-.068-.216.011-.35.064-.49-.031-.037-.099-.24-.139-.337 2.303-1.36 4.001-3.53 4.799-6.036.107.017.294.05.355.062.126-.082.24-.19.466-.172.445.064.9.23 1.452.427.256.098.462.212.747.288.06.016.146.03.215.046l.016.005.012.002c.494.106.973-.164 1.074-.608.102-.444-.213-.896-.704-1.014-.071-.016-.172-.044-.242-.057-.29-.055-.525-.041-.798-.064-.582-.06-1.064-.11-1.492-.245-.175-.068-.3-.276-.36-.361l-.336-.098c.174-1.26.127-2.573-.174-3.886a10.775 10.775 0 0 0-1.56-3.605c.086-.078.25-.223.295-.265.014-.15.002-.306.157-.471.327-.308.74-.563 1.238-.87.236-.139.454-.229.691-.404.054-.04.127-.102.184-.147.399-.319.49-.868.204-1.227-.286-.36-.842-.394-1.241-.075-.057.045-.134.104-.185.147-.224.193-.362.383-.55.582-.41.417-.75.765-1.122 1.015-.161.095-.398.062-.505.056l-.317.226a10.908 10.908 0 0 0-6.909-3.339 19.51 19.51 0 0 1-.02-.371c-.108-.104-.239-.193-.272-.417-.036-.447.025-.929.095-1.51.038-.27.102-.496.113-.791.003-.067-.001-.164-.001-.237 0-.51-.373-.924-.833-.924Zm-1.042 6.456-.247 4.366-.018.009a.734.734 0 0 1-1.165.562l-.007.003-3.58-2.538a8.575 8.575 0 0 1 5.017-2.402Zm2.086 0a8.647 8.647 0 0 1 4.987 2.404l-3.557 2.522-.012-.005a.734.734 0 0 1-1.167-.56l-.004-.002-.247-4.36Zm-8.401 4.033 3.269 2.924-.004.018a.733.733 0 0 1-.288 1.26l-.004.015-4.19 1.21a8.572 8.572 0 0 1 1.217-5.427Zm14.692.002a8.678 8.678 0 0 1 1.072 2.62 8.66 8.66 0 0 1 .182 2.79l-4.212-1.213-.003-.018a.734.734 0 0 1-.288-1.26l-.002-.01 3.25-2.909Zm-8.005 3.148h1.34l.831 1.04-.298 1.299-1.203.578-1.206-.58-.298-1.299.834-1.038Zm4.293 3.56a.729.729 0 0 1 .17.013l.006-.009 4.334.733a8.583 8.583 0 0 1-3.47 4.359l-1.682-4.064.005-.007a.735.735 0 0 1 .637-1.025Zm-7.28.018a.734.734 0 0 1 .664 1.023l.013.016-1.665 4.023a8.619 8.619 0 0 1-3.46-4.33l4.298-.728.007.009a.736.736 0 0 1 .144-.013Zm3.63 1.763a.726.726 0 0 1 .344.073c.146.07.258.18.329.313h.016l2.118 3.827a8.76 8.76 0 0 1-.846.236 8.606 8.606 0 0 1-4.697-.241l2.112-3.82h.004a.735.735 0 0 1 .62-.388Z"></path></g></svg></svg><g transform="translate(55, 89)"><text x="0" y="0" text-anchor="middle" style="fill:#101840;font-size:10px" dominant-baseline="middle" alignment-baseline="middle"><tspan>Kubernetes</tspan></text></g><rect width="60" height="60" x="25" y="25" fill="transparent"></rect><rect width="40" height="40" x="35" y="35" fill="transparent"></rect></g><g transform="translate(2090,2640)" width="110" height="110"><g transform="translate(30,30)"><path stroke="none" d="
    M 0, 16.6
    C 0, 2.9299 2.9299, 0 16.6, 0
    L 33.4, 0
    C 47.0701, 0 50, 2.9299 50, 16.6
    L 50, 33.4
    C 50, 47.0701 47.0701, 50 33.4, 50
    L 16.6, 50
    C 2.9299, 50 0, 47.0701 0, 33.4
    L 0, 16.6
  " stroke-width="2" fill="#e0e1e2"></path></g><svg viewBox="0 0 50 50" width="35" height="35" x="37.5" y="37.5"><svg id="Qq2Ujz-t_rrSLShiTmaJz" xmlns="http://www.w3.org/2000/svg" viewBox="7.45 4.2 35.03 41.53" width="50" height="50"><g fill="none" fill-rule="evenodd" clip-rule="evenodd"><path fill="#FEC514" d="M24.273 29.727h-16V5h1.454c8.034 0 14.546 6.512 14.546 14.546v10.181z"></path><path fill="#343741" d="M23.545 45h.728V29.727h-16C8.273 38.162 15.11 45 23.545 45z"></path><path fill="#00BFB3" d="M27.91 45h13.817V29.727H27.91V45z"></path></g></svg></svg><g transform="translate(55, 89)"><text x="0" y="0" text-anchor="middle" style="fill:#101840;font-size:10px" dominant-baseline="middle" alignment-baseline="middle"><tspan>Log Streaming</tspan></text></g><rect width="60" height="60" x="25" y="25" fill="transparent"></rect><rect width="40" height="40" x="35" y="35" fill="transparent"></rect></g><g transform="translate(2310,2640)" width="110" height="110"><g transform="translate(27,28)"><path stroke="none" d="
    M 0, 16.6
    C 0, 2.9299 2.9299, 0 16.6, 0
    L 33.4, 0
    C 47.0701, 0 50, 2.9299 50, 16.6
    L 50, 33.4
    C 50, 47.0701 47.0701, 50 33.4, 50
    L 16.6, 50
    C 2.9299, 50 0, 47.0701 0, 33.4
    L 0, 16.6
  " stroke-width="2" fill="#e1e1e1"></path><path transform="translate(5, 5)" d="m 0 44 c 3 3 7 4 15 4 h 16 c 14 0 17 -3 17 -17 v -16 c 0 -8 -1 -12 -4 -15 c 1 3 2 7 2 13 v 16 c 0 14 -3 17 -17 17 h -16 c -6 0 -10 -1 -13 -2 z" fill="#e1e1e1"></path><path transform="translate(8, 8)" d="m 0 44 c 3 3 7 4 15 4 h 16 c 14 0 17 -3 17 -17 v -16 c 0 -8 -1 -12 -4 -15 c 1 3 2 7 2 13 v 16 c 0 14 -3 17 -17 17 h -16 c -6 0 -10 -1 -13 -2 z" fill="#e1e1e1"></path></g><svg viewBox="0 0 50 50" width="35" height="35" x="34.5" y="35.5"><svg id="vBf1qCUHNYTuDCbtksYPj" xmlns="http://www.w3.org/2000/svg" viewBox="11.83 4.58 26.29 41.6" width="50" height="50"><path fill="#231F20" fill-rule="evenodd" d="M32.104 27.578c-1.558 0-2.954.69-3.91 1.777l-2.451-1.735c.26-.716.41-1.485.41-2.29 0-.791-.145-1.547-.396-2.253l2.445-1.716a5.198 5.198 0 0 0 3.902 1.767 5.22 5.22 0 0 0 5.214-5.214 5.22 5.22 0 0 0-5.214-5.215 5.22 5.22 0 0 0-5.215 5.215c0 .514.078 1.01.218 1.48l-2.447 1.718a6.731 6.731 0 0 0-4.17-2.424V15.74a5.223 5.223 0 0 0 4.142-5.103 5.22 5.22 0 0 0-5.215-5.214 5.22 5.22 0 0 0-5.214 5.214 5.22 5.22 0 0 0 4.048 5.079v2.987c-3.159.554-5.57 3.311-5.57 6.627 0 3.332 2.435 6.099 5.617 6.634v3.154a5.221 5.221 0 0 0-4.095 5.09 5.22 5.22 0 0 0 5.214 5.215 5.22 5.22 0 0 0 5.214-5.214 5.221 5.221 0 0 0-4.095-5.09v-3.155a6.732 6.732 0 0 0 4.1-2.384l2.467 1.746a5.191 5.191 0 0 0-.214 1.466 5.22 5.22 0 0 0 5.215 5.215 5.22 5.22 0 0 0 5.214-5.215 5.22 5.22 0 0 0-5.214-5.214Zm0-12.193a2.531 2.531 0 0 1 2.528 2.529 2.531 2.531 0 0 1-2.528 2.528 2.531 2.531 0 0 1-2.528-2.528 2.531 2.531 0 0 1 2.528-2.529Zm-15.215-4.748a2.531 2.531 0 0 1 2.528-2.528 2.531 2.531 0 0 1 2.528 2.528 2.531 2.531 0 0 1-2.528 2.529 2.531 2.531 0 0 1-2.528-2.529Zm5.056 29.572a2.531 2.531 0 0 1-2.528 2.528 2.531 2.531 0 0 1-2.528-2.528 2.531 2.531 0 0 1 2.528-2.529 2.531 2.531 0 0 1 2.528 2.529Zm-2.528-11.353a3.53 3.53 0 0 1-3.526-3.526 3.53 3.53 0 0 1 3.526-3.526 3.53 3.53 0 0 1 3.526 3.526 3.53 3.53 0 0 1-3.526 3.526Zm12.687 6.465a2.531 2.531 0 0 1-2.528-2.529 2.531 2.531 0 0 1 2.528-2.528 2.531 2.531 0 0 1 2.528 2.528 2.531 2.531 0 0 1-2.528 2.529Z"></path></svg></svg><g transform="translate(55, 91)"><text x="0" y="0" text-anchor="middle" style="fill:#101840;font-size:10px" dominant-baseline="middle" alignment-baseline="middle"><tspan>Apache Kafka</tspan></text></g><rect width="66" height="64" x="22" y="23" fill="transparent"></rect><rect width="46" height="44" x="32" y="33" fill="transparent"></rect></g><g transform="translate(2585,2530)" width="110" height="110"><g transform="translate(30,30)"><path stroke="none" d="
    M 0, 16.6
    C 0, 2.9299 2.9299, 0 16.6, 0
    L 33.4, 0
    C 47.0701, 0 50, 2.9299 50, 16.6
    L 50, 33.4
    C 50, 47.0701 47.0701, 50 33.4, 50
    L 16.6, 50
    C 2.9299, 50 0, 47.0701 0, 33.4
    L 0, 16.6
  " stroke-width="2" fill="#dfe1e3"></path></g><svg viewBox="0 0 50 50" width="35" height="35" x="37.5" y="37.5"><svg id="UD4JAchowhsPT4w51qBVh" xmlns="http://www.w3.org/2000/svg" viewBox="0 0 640 512" width="50" height="50"><path fill="#232F3D" d="M490 296.9C480.51 239.51 450.51 64 392.3 64c-14 0-26.49 5.93-37 14a58.21 58.21 0 0 1-70.58 0c-10.51-8-23-14-37-14-58.2 0-88.2 175.47-97.71 232.88C188.81 309.47 243.73 320 320 320s131.23-10.51 170-23.1zm142.9-37.18a16 16 0 0 0-19.75 1.5c-1 .9-101.27 90.78-293.16 90.78-190.82 0-292.22-89.94-293.24-90.84A16 16 0 0 0 1 278.53C1.73 280.55 78.32 480 320 480s318.27-199.45 319-201.47a16 16 0 0 0-6.09-18.81z"></path></svg></svg><g transform="translate(55, 89)"><text x="0" y="0" text-anchor="middle" style="fill:#101840;font-size:10px" dominant-baseline="middle" alignment-baseline="middle"><tspan>Dapr Sidecar</tspan></text></g><rect width="60" height="60" x="25" y="25" fill="transparent"></rect><rect width="40" height="40" x="35" y="35" fill="transparent"></rect></g><g transform="translate(2695,2530)" width="110" height="110"><g transform="translate(30,30)"><path stroke="none" d="
    M 0, 16.6
    C 0, 2.9299 2.9299, 0 16.6, 0
    L 33.4, 0
    C 47.0701, 0 50, 2.9299 50, 16.6
    L 50, 33.4
    C 50, 47.0701 47.0701, 50 33.4, 50
    L 16.6, 50
    C 2.9299, 50 0, 47.0701 0, 33.4
    L 0, 16.6
  " stroke-width="2" fill="#dfe1e3"></path></g><svg viewBox="0 0 50 50" width="35" height="35" x="37.5" y="37.5"><svg id="25wBAwdXo03IVMHdmhqA3" xmlns="http://www.w3.org/2000/svg" viewBox="0 0 640 512" width="50" height="50"><path fill="#232F3D" d="m278.9 511.5-61-17.7c-6.4-1.8-10-8.5-8.2-14.9L346.2 8.7c1.8-6.4 8.5-10 14.9-8.2l61 17.7c6.4 1.8 10 8.5 8.2 14.9L293.8 503.3c-1.9 6.4-8.5 10.1-14.9 8.2zm-114-112.2 43.5-46.4c4.6-4.9 4.3-12.7-.8-17.2L117 256l90.6-79.7c5.1-4.5 5.5-12.3.8-17.2l-43.5-46.4c-4.5-4.8-12.1-5.1-17-.5L3.8 247.2c-5.1 4.7-5.1 12.8 0 17.5l144.1 135.1c4.9 4.6 12.5 4.4 17-.5zm327.2.6 144.1-135.1c5.1-4.7 5.1-12.8 0-17.5L492.1 112.1c-4.8-4.5-12.4-4.3-17 .5L431.6 159c-4.6 4.9-4.3 12.7.8 17.2L523 256l-90.6 79.7c-5.1 4.5-5.5 12.3-.8 17.2l43.5 46.4c4.5 4.9 12.1 5.1 17 .6z"></path></svg></svg><g transform="translate(55, 89)"><text x="0" y="0" text-anchor="middle" style="fill:#101840;font-size:10px" dominant-baseline="middle" alignment-baseline="middle"><tspan>Async Function</tspan></text></g><rect width="60" height="60" x="25" y="25" fill="transparent"></rect><rect width="40" height="40" x="35" y="35" fill="transparent"></rect></g><g transform="translate(2585,2750)" width="110" height="110"><g transform="translate(30,30)"><path stroke="none" d="
    M 0, 16.6
    C 0, 2.9299 2.9299, 0 16.6, 0
    L 33.4, 0
    C 47.0701, 0 50, 2.9299 50, 16.6
    L 50, 33.4
    C 50, 47.0701 47.0701, 50 33.4, 50
    L 16.6, 50
    C 2.9299, 50 0, 47.0701 0, 33.4
    L 0, 16.6
  " stroke-width="2" fill="#dfe1e3"></path></g><svg viewBox="0 0 50 50" width="35" height="35" x="37.5" y="37.5"><svg id="uh8BgPYfZ7HFbZo2fTllz" xmlns="http://www.w3.org/2000/svg" viewBox="0 0 640 512" width="50" height="50"><path fill="#232F3D" d="M490 296.9C480.51 239.51 450.51 64 392.3 64c-14 0-26.49 5.93-37 14a58.21 58.21 0 0 1-70.58 0c-10.51-8-23-14-37-14-58.2 0-88.2 175.47-97.71 232.88C188.81 309.47 243.73 320 320 320s131.23-10.51 170-23.1zm142.9-37.18a16 16 0 0 0-19.75 1.5c-1 .9-101.27 90.78-293.16 90.78-190.82 0-292.22-89.94-293.24-90.84A16 16 0 0 0 1 278.53C1.73 280.55 78.32 480 320 480s318.27-199.45 319-201.47a16 16 0 0 0-6.09-18.81z"></path></svg></svg><g transform="translate(55, 89)"><text x="0" y="0" text-anchor="middle" style="fill:#101840;font-size:10px" dominant-baseline="middle" alignment-baseline="middle"><tspan>Dapr Sidecar</tspan></text></g><rect width="60" height="60" x="25" y="25" fill="transparent"></rect><rect width="40" height="40" x="35" y="35" fill="transparent"></rect></g><g transform="translate(2695,2750)" width="110" height="110"><g transform="translate(30,30)"><path stroke="none" d="
    M 0, 16.6
    C 0, 2.9299 2.9299, 0 16.6, 0
    L 33.4, 0
    C 47.0701, 0 50, 2.9299 50, 16.6
    L 50, 33.4
    C 50, 47.0701 47.0701, 50 33.4, 50
    L 16.6, 50
    C 2.9299, 50 0, 47.0701 0, 33.4
    L 0, 16.6
  " stroke-width="2" fill="#dfe1e3"></path></g><svg viewBox="0 0 50 50" width="35" height="35" x="37.5" y="37.5"><svg id="H3LdYN0lyoQfkUlHSs62p" xmlns="http://www.w3.org/2000/svg" viewBox="0 0 640 512" width="50" height="50"><path fill="#232F3D" d="m278.9 511.5-61-17.7c-6.4-1.8-10-8.5-8.2-14.9L346.2 8.7c1.8-6.4 8.5-10 14.9-8.2l61 17.7c6.4 1.8 10 8.5 8.2 14.9L293.8 503.3c-1.9 6.4-8.5 10.1-14.9 8.2zm-114-112.2 43.5-46.4c4.6-4.9 4.3-12.7-.8-17.2L117 256l90.6-79.7c5.1-4.5 5.5-12.3.8-17.2l-43.5-46.4c-4.5-4.8-12.1-5.1-17-.5L3.8 247.2c-5.1 4.7-5.1 12.8 0 17.5l144.1 135.1c4.9 4.6 12.5 4.4 17-.5zm327.2.6 144.1-135.1c5.1-4.7 5.1-12.8 0-17.5L492.1 112.1c-4.8-4.5-12.4-4.3-17 .5L431.6 159c-4.6 4.9-4.3 12.7.8 17.2L523 256l-90.6 79.7c-5.1 4.5-5.5 12.3-.8 17.2l43.5 46.4c4.5 4.9 12.1 5.1 17 .6z"></path></svg></svg><g transform="translate(55, 89)"><text x="0" y="0" text-anchor="middle" style="fill:#101840;font-size:10px" dominant-baseline="middle" alignment-baseline="middle"><tspan>Async Function</tspan></text></g><rect width="60" height="60" x="25" y="25" fill="transparent"></rect><rect width="40" height="40" x="35" y="35" fill="transparent"></rect></g><g transform="translate(2310,2805)" width="110" height="110"><g transform="translate(30,30)"><path stroke="none" d="
    M 0, 16.6
    C 0, 2.9299 2.9299, 0 16.6, 0
    L 33.4, 0
    C 47.0701, 0 50, 2.9299 50, 16.6
    L 50, 33.4
    C 50, 47.0701 47.0701, 50 33.4, 50
    L 16.6, 50
    C 2.9299, 50 0, 47.0701 0, 33.4
    L 0, 16.6
  " stroke-width="2" fill="#d5e1fa"></path></g><svg viewBox="0 0 50 50" width="35" height="35" x="37.5" y="37.5"><svg id="JO-KrZJq81K4ZTxeq4v3m" xmlns="http://www.w3.org/2000/svg" viewBox="4.2 4.76 41.53 40.41" width="50" height="50"><g fill="none" fill-rule="evenodd"><g clip-path="url(#dvbqXB9l0p9tlp7nHJvZZ)"><path fill="#326CE5" d="M24.868 6.62c-.335.017-.663.1-.965.245L10.73 13.159a2.49 2.49 0 0 0-1.363 1.695l-3.25 14.138a2.478 2.478 0 0 0 .485 2.115l9.118 11.337a2.515 2.515 0 0 0 1.97.94l14.622-.004a2.535 2.535 0 0 0 1.97-.938l9.114-11.339a2.49 2.49 0 0 0 .487-2.114L40.628 14.85a2.515 2.515 0 0 0-1.363-1.695L26.09 6.866c-.38-.182-.8-.266-1.222-.245Z"></path><path fill="#fff" d="M24.861 5.597c-.353.018-.699.106-1.017.26L9.936 12.498c-.36.172-.676.422-.925.732-.25.31-.425.671-.514 1.057l-3.43 14.926a2.617 2.617 0 0 0 .512 2.232l9.625 11.968a2.656 2.656 0 0 0 2.08.993l15.435-.004a2.677 2.677 0 0 0 2.079-.99l9.622-11.97a2.63 2.63 0 0 0 .514-2.231l-3.436-14.927a2.629 2.629 0 0 0-.514-1.056 2.655 2.655 0 0 0-.925-.731L26.152 5.854a2.678 2.678 0 0 0-1.29-.257Zm.007 1.024c.421-.021.841.063 1.222.244l13.174 6.291a2.49 2.49 0 0 1 1.363 1.695l3.255 14.139a2.478 2.478 0 0 1-.487 2.114l-9.114 11.338a2.517 2.517 0 0 1-1.97.939l-14.622.003a2.537 2.537 0 0 1-1.97-.94L6.603 31.107a2.487 2.487 0 0 1-.485-2.114l3.25-14.138a2.49 2.49 0 0 1 .486-1.002c.236-.294.536-.53.877-.693l13.173-6.295c.302-.144.63-.227.965-.244Z"></path><path fill="#fff" d="m9.422 25 4.588-4.436v2.218h1.689V16.13H34.3v6.653h1.689v-2.218L40.578 25l-4.588 4.436v-2.218h-1.689v6.653H15.7v-6.653h-1.69v2.218L9.423 25Z" clip-rule="evenodd"></path><path fill="#326CE5" d="M17.872 20.172 25 18.173l7.128 1.999L25 22.17l-7.128-1.998zm0 .765v7.333l6.641 3.557.033-8.97-6.674-1.92zm14.256 0v7.333l-6.641 3.557-.033-8.97 6.674-1.92z" clip-rule="evenodd"></path></g><defs><clipPath id="dvbqXB9l0p9tlp7nHJvZZ"><path fill="#fff" d="M0 0h40v38.813H0z" transform="translate(5 5.593)"></path></clipPath></defs></g></svg></svg><g transform="translate(55, 89)"><text x="0" y="0" text-anchor="middle" style="fill:#101840;font-size:10px" dominant-baseline="middle" alignment-baseline="middle"><tspan>KEDA Autoscaler</tspan></text></g><rect width="60" height="60" x="25" y="25" fill="transparent"></rect><rect width="40" height="40" x="35" y="35" fill="transparent"></rect></g><g transform="translate(2915,2640)" width="110" height="110"><g transform="translate(30,30)"><path stroke="none" d="
    M 0, 16.6
    C 0, 2.9299 2.9299, 0 16.6, 0
    L 33.4, 0
    C 47.0701, 0 50, 2.9299 50, 16.6
    L 50, 33.4
    C 50, 47.0701 47.0701, 50 33.4, 50
    L 16.6, 50
    C 2.9299, 50 0, 47.0701 0, 33.4
    L 0, 16.6
  " stroke-width="2" fill="#d5e1fa"></path></g><svg viewBox="0 0 50 50" width="35" height="35" x="37.5" y="37.5"><svg id="P_9rNWzq_fLguZ9g45IAf" xmlns="http://www.w3.org/2000/svg" viewBox="4.2 4.76 41.53 40.41" width="50" height="50"><g fill="none" fill-rule="evenodd"><g clip-path="url(#PQeSkbO8-NO8DQXyis5VR)"><path fill="#326CE5" d="M24.868 6.62c-.334.017-.663.1-.965.245L10.73 13.159a2.49 2.49 0 0 0-1.363 1.695l-3.25 14.138a2.478 2.478 0 0 0 .485 2.115l9.118 11.337a2.515 2.515 0 0 0 1.97.94l14.622-.004a2.536 2.536 0 0 0 1.97-.938l9.114-11.339a2.49 2.49 0 0 0 .487-2.114L40.628 14.85a2.492 2.492 0 0 0-1.363-1.694L26.09 6.865c-.38-.182-.8-.266-1.222-.245Z"></path><path fill="#fff" d="M24.861 5.597c-.353.018-.699.106-1.017.26L9.936 12.498c-.36.172-.676.422-.925.732-.25.31-.425.671-.514 1.057l-3.43 14.926a2.617 2.617 0 0 0 .512 2.232l9.625 11.968a2.656 2.656 0 0 0 2.08.993l15.435-.004a2.677 2.677 0 0 0 2.079-.99l9.622-11.97a2.63 2.63 0 0 0 .514-2.231l-3.436-14.927a2.629 2.629 0 0 0-1.438-1.787L26.151 5.854a2.678 2.678 0 0 0-1.29-.257Zm.007 1.024c.421-.021.841.063 1.222.244l13.174 6.291a2.515 2.515 0 0 1 1.363 1.695l3.255 14.139a2.48 2.48 0 0 1-.487 2.114l-9.114 11.338a2.515 2.515 0 0 1-1.97.939l-14.622.003a2.537 2.537 0 0 1-1.97-.94L6.603 31.107a2.487 2.487 0 0 1-.485-2.114l3.25-14.138a2.49 2.49 0 0 1 .486-1.002c.236-.294.536-.53.877-.693l13.173-6.295c.302-.144.63-.227.965-.244Z"></path><path fill="#fff" d="M12.973 29.448h6.45v4.528h-6.45v-4.528zm8.802 0h6.45v4.528h-6.45v-4.528zm8.802 0h6.45v4.528h-6.45v-4.528zM19.89 16.024h10.22v4.528H19.89v-4.528z" clip-rule="evenodd"></path><path stroke="#fff" stroke-linejoin="round" stroke-miterlimit="10" stroke-width=".529" d="M25 20.552V25h-8.798v4.442M25 20.552V25h8.798v4.442"></path><path stroke="#fff" stroke-linejoin="round" stroke-miterlimit="10" stroke-width=".529" d="M24.982 20.555v4.448h.037v4.442"></path></g><defs><clipPath id="PQeSkbO8-NO8DQXyis5VR"><path fill="#fff" d="M0 0h40v38.813H0z" transform="translate(5 5.593)"></path></clipPath></defs></g></svg></svg><g transform="translate(55, 89)"><text x="0" y="0" text-anchor="middle" style="fill:#101840;font-size:10px" dominant-baseline="middle" alignment-baseline="middle"><tspan>Notification Manager</tspan></text></g><rect width="60" height="60" x="25" y="25" fill="transparent"></rect><rect width="40" height="40" x="35" y="35" fill="transparent"></rect></g><g transform="translate(3080,2640)" width="110" height="110"><g transform="translate(30,30)"><path stroke="none" d="
    M 0, 16.6
    C 0, 2.9299 2.9299, 0 16.6, 0
    L 33.4, 0
    C 47.0701, 0 50, 2.9299 50, 16.6
    L 50, 33.4
    C 50, 47.0701 47.0701, 50 33.4, 50
    L 16.6, 50
    C 2.9299, 50 0, 47.0701 0, 33.4
    L 0, 16.6
  " stroke-width="2" fill="#e1e1e1"></path></g><svg viewBox="0 0 50 50" width="35" height="35" x="37.5" y="37.5"><svg id="5jcvM_IqVJlcDlLxvnp9-" xmlns="http://www.w3.org/2000/svg" viewBox="4.2 4.2 41.53 41.53" width="50" height="50"><g fill="none" fill-rule="evenodd"><path fill="#E01E5A" d="M13.433 30.267c0 2.323-1.878 4.2-4.2 4.2-2.324 0-4.201-1.877-4.201-4.2s1.877-4.201 4.2-4.201h4.2v4.2zm2.1 0c0-2.323 1.878-4.201 4.2-4.201s4.201 1.878 4.201 4.2v10.502c0 2.323-1.878 4.2-4.2 4.2s-4.201-1.877-4.201-4.2V30.266z"></path><path fill="#36C5F0" d="M19.733 13.401a4.197 4.197 0 0 1-4.2-4.2c0-2.324 1.877-4.201 4.2-4.201s4.201 1.877 4.201 4.2v4.201h-4.2zm0 2.132c2.323 0 4.201 1.877 4.201 4.2s-1.878 4.201-4.2 4.201H9.2c-2.323 0-4.2-1.878-4.2-4.2s1.877-4.201 4.2-4.201h10.534z"></path><path fill="#2EB67D" d="M36.567 19.733c0-2.323 1.878-4.2 4.2-4.2s4.201 1.877 4.201 4.2-1.877 4.201-4.2 4.201h-4.2v-4.2zm-2.1 0c0 2.323-1.877 4.201-4.2 4.201s-4.201-1.878-4.201-4.2V9.2c0-2.323 1.878-4.2 4.2-4.2s4.201 1.877 4.201 4.2v10.534z"></path><path fill="#ECB22E" d="M30.267 36.567c2.323 0 4.2 1.878 4.2 4.2s-1.877 4.201-4.2 4.201-4.201-1.877-4.201-4.2v-4.2h4.2zm0-2.1c-2.323 0-4.201-1.877-4.201-4.2s1.878-4.201 4.2-4.201H40.8c2.323 0 4.2 1.878 4.2 4.2s-1.877 4.201-4.2 4.201H30.267z"></path></g></svg></svg><g transform="translate(55, 89)"><text x="0" y="0" text-anchor="middle" style="fill:#101840;font-size:10px" dominant-baseline="middle" alignment-baseline="middle"><tspan>Slack</tspan></text></g><rect width="60" height="60" x="25" y="25" fill="transparent"></rect><rect width="40" height="40" x="35" y="35" fill="transparent"></rect></g><marker id="arrowhead_src_arr_2AlNbhzMwXdEOVyrgD06Q" refX="4" refY="3" orient="auto" markerWidth="8" markerHeight="8"><path d="M2.91922181,1.64495663 L4.49787879,4.07365967 C4.64837316,4.30518948 4.58268096,4.61488128 4.35115115,4.76537565 C4.27004602,4.81809399 4.17538993,4.84615385 4.07865698,4.84615385 L0.921343022,4.84615385 C0.645200647,4.84615385 0.421343022,4.62229622 0.421343022,4.34615385 C0.421343022,4.24942089 0.44940288,4.1547648 0.502121214,4.07365967 L2.08077819,1.64495663 C2.23127257,1.41342682 2.54096436,1.34773462 2.77249418,1.498229 C2.83112579,1.53633954 2.88111126,1.58632502 2.91922181,1.64495663 Z" fill="#afb4b7" transform="translate(2.500000, 2.923077) rotate(270.000000) translate(-2.500000, -2.923077)"></path></marker><path style="stroke-width:2px;stroke:#afb4b7" stroke-linecap="round" marker-start="url(#arrowhead_src_arr_2AlNbhzMwXdEOVyrgD06Q)" d="M 2145 2522 L 2145 2557.6375 M 2145 2630.3625 L 2145 2666  " fill="none" pointer-events="stroke" stroke-linejoin="round"></path><path style="stroke-width:4px;stroke:transparent" d="M 2145 2522 L 2145 2557.6375 M 2145 2630.3625 L 2145 2666  " fill="none" pointer-events="stroke"></path><path id="arr_2AlNbhzMwXdEOVyrgD06Q-label" d="M 2145 2630.3625 L 2145 2557.6375  "></path><text font-size="8" dominant-baseline="middle"><textPath href="#arr_2AlNbhzMwXdEOVyrgD06Q-label" alignment-baseline="middle" dominant-baseline="middle" startOffset="3">collect event logs</textPath></text><marker id="arrowhead_arr_gPP9LUfuAHEw5nDfKYYe3" refX="1" refY="3" orient="auto" markerWidth="8" markerHeight="8"><path d="M2.91922181,1.64495663 L4.49787879,4.07365967 C4.64837316,4.30518948 4.58268096,4.61488128 4.35115115,4.76537565 C4.27004602,4.81809399 4.17538993,4.84615385 4.07865698,4.84615385 L0.921343022,4.84615385 C0.645200647,4.84615385 0.421343022,4.62229622 0.421343022,4.34615385 C0.421343022,4.24942089 0.44940288,4.1547648 0.502121214,4.07365967 L2.08077819,1.64495663 C2.23127257,1.41342682 2.54096436,1.34773462 2.77249418,1.498229 C2.83112579,1.53633954 2.88111126,1.58632502 2.91922181,1.64495663 Z" fill="#afb4b7" transform="translate(2.500000, 2.923077) rotate(90.000000) translate(-2.500000, -2.923077)"></path></marker><path style="stroke-width:2px;stroke:#afb4b7" stroke-linecap="round" marker-end="url(#arrowhead_arr_gPP9LUfuAHEw5nDfKYYe3)" d="M 2174 2695 L 2206.775 2695 M 2295.225 2695 L 2328 2695  " fill="none" pointer-events="stroke" stroke-linejoin="round"></path><path style="stroke-width:4px;stroke:transparent" d="M 2174 2695 L 2206.775 2695 M 2295.225 2695 L 2328 2695  " fill="none" pointer-events="stroke"></path><path id="arr_gPP9LUfuAHEw5nDfKYYe3-label" d="M 2206.775 2695 L 2295.225 2695  "></path><text font-size="8" dominant-baseline="middle"><textPath href="#arr_gPP9LUfuAHEw5nDfKYYe3-label" alignment-baseline="middle" dominant-baseline="middle" startOffset="3">flush aggregated logs</textPath></text><marker id="arrowhead_arr_5n0qGOtnzgUOtjydz89cG" refX="1" refY="3" orient="auto" markerWidth="8" markerHeight="8"><path d="M2.91922181,1.64495663 L4.49787879,4.07365967 C4.64837316,4.30518948 4.58268096,4.61488128 4.35115115,4.76537565 C4.27004602,4.81809399 4.17538993,4.84615385 4.07865698,4.84615385 L0.921343022,4.84615385 C0.645200647,4.84615385 0.421343022,4.62229622 0.421343022,4.34615385 C0.421343022,4.24942089 0.44940288,4.1547648 0.502121214,4.07365967 L2.08077819,1.64495663 C2.23127257,1.41342682 2.54096436,1.34773462 2.77249418,1.498229 C2.83112579,1.53633954 2.88111126,1.58632502 2.91922181,1.64495663 Z" fill="#afb4b7" transform="translate(2.500000, 2.923077) rotate(90.000000) translate(-2.500000, -2.923077)"></path></marker><path style="stroke-width:2px;stroke:#afb4b7" stroke-linecap="round" marker-end="url(#arrowhead_arr_5n0qGOtnzgUOtjydz89cG)" d="M 2394 2860 L 2446.13125 2860 M 2471.86875 2860 L 2524 2860  " fill="none" pointer-events="stroke" stroke-linejoin="round"></path><path style="stroke-width:4px;stroke:transparent" d="M 2394 2860 L 2446.13125 2860 M 2471.86875 2860 L 2524 2860  " fill="none" pointer-events="stroke"></path><path id="arr_5n0qGOtnzgUOtjydz89cG-label" d="M 2446.13125 2860 L 2471.86875 2860  "></path><text font-size="8" dominant-baseline="middle"><textPath href="#arr_5n0qGOtnzgUOtjydz89cG-label" alignment-baseline="middle" dominant-baseline="middle" startOffset="3">scale</textPath></text><marker id="arrowhead_arr_0ahcxGJ7GFD7A1ixAxlaR" refX="1" refY="3" orient="auto" markerWidth="8" markerHeight="8"><path d="M2.91922181,1.64495663 L4.49787879,4.07365967 C4.64837316,4.30518948 4.58268096,4.61488128 4.35115115,4.76537565 C4.27004602,4.81809399 4.17538993,4.84615385 4.07865698,4.84615385 L0.921343022,4.84615385 C0.645200647,4.84615385 0.421343022,4.62229622 0.421343022,4.34615385 C0.421343022,4.24942089 0.44940288,4.1547648 0.502121214,4.07365967 L2.08077819,1.64495663 C2.23127257,1.41342682 2.54096436,1.34773462 2.77249418,1.498229 C2.83112579,1.53633954 2.88111126,1.58632502 2.91922181,1.64495663 Z" fill="#afb4b7" transform="translate(2.500000, 2.923077) rotate(90.000000) translate(-2.500000, -2.923077)"></path></marker><path style="stroke-width:2px;stroke:#afb4b7" stroke-linecap="round" marker-end="url(#arrowhead_arr_0ahcxGJ7GFD7A1ixAxlaR)" d="M 2999 2695 L 3023.74375 2695 M 3076.25625 2695 L 3101 2695  " fill="none" pointer-events="stroke" stroke-linejoin="round"></path><path style="stroke-width:4px;stroke:transparent" d="M 2999 2695 L 3023.74375 2695 M 3076.25625 2695 L 3101 2695  " fill="none" pointer-events="stroke"></path><path id="arr_0ahcxGJ7GFD7A1ixAxlaR-label" d="M 3023.74375 2695 L 3076.25625 2695  "></path><text font-size="8" dominant-baseline="middle"><textPath href="#arr_0ahcxGJ7GFD7A1ixAxlaR-label" alignment-baseline="middle" dominant-baseline="middle" startOffset="3">notifications</textPath></text><marker id="arrowhead_arr_16J6zV6AB1ksc9fTW5X73" refX="1" refY="3" orient="auto" markerWidth="8" markerHeight="8"><path d="M2.91922181,1.64495663 L4.49787879,4.07365967 C4.64837316,4.30518948 4.58268096,4.61488128 4.35115115,4.76537565 C4.27004602,4.81809399 4.17538993,4.84615385 4.07865698,4.84615385 L0.921343022,4.84615385 C0.645200647,4.84615385 0.421343022,4.62229622 0.421343022,4.34615385 C0.421343022,4.24942089 0.44940288,4.1547648 0.502121214,4.07365967 L2.08077819,1.64495663 C2.23127257,1.41342682 2.54096436,1.34773462 2.77249418,1.498229 C2.83112579,1.53633954 2.88111126,1.58632502 2.91922181,1.64495663 Z" fill="#afb4b7" transform="translate(2.500000, 2.923077) rotate(90.000000) translate(-2.500000, -2.923077)"></path></marker><path style="stroke-width:2px;stroke:#afb4b7" stroke-linecap="round" marker-end="url(#arrowhead_arr_16J6zV6AB1ksc9fTW5X73)" d="M 2365 2739 L 2365 2766.9 M 2365 2798.1 L 2365 2826  " fill="none" pointer-events="stroke" stroke-linejoin="round"></path><path style="stroke-width:4px;stroke:transparent" d="M 2365 2739 L 2365 2766.9 M 2365 2798.1 L 2365 2826  " fill="none" pointer-events="stroke"></path><path id="arr_16J6zV6AB1ksc9fTW5X73-label" d="M 2365 2798.1 L 2365 2766.9  "></path><text font-size="8" dominant-baseline="middle"><textPath href="#arr_16J6zV6AB1ksc9fTW5X73-label" alignment-baseline="middle" dominant-baseline="middle" startOffset="3">trigger</textPath></text><marker id="arrowhead_arr_ErWes0wCGsQaXIdddYFvz" refX="1" refY="3" orient="auto" markerWidth="8" markerHeight="8"><path d="M2.91922181,1.64495663 L4.49787879,4.07365967 C4.64837316,4.30518948 4.58268096,4.61488128 4.35115115,4.76537565 C4.27004602,4.81809399 4.17538993,4.84615385 4.07865698,4.84615385 L0.921343022,4.84615385 C0.645200647,4.84615385 0.421343022,4.62229622 0.421343022,4.34615385 C0.421343022,4.24942089 0.44940288,4.1547648 0.502121214,4.07365967 L2.08077819,1.64495663 C2.23127257,1.41342682 2.54096436,1.34773462 2.77249418,1.498229 C2.83112579,1.53633954 2.88111126,1.58632502 2.91922181,1.64495663 Z" fill="#afb4b7" transform="translate(2.500000, 2.923077) rotate(90.000000) translate(-2.500000, -2.923077)"></path></marker><path style="stroke-width:2px;stroke:#afb4b7" stroke-linecap="round" marker-end="url(#arrowhead_arr_ErWes0wCGsQaXIdddYFvz)" d="M 2669 2589.5 L 2716 2589.5  " fill="none" pointer-events="stroke" stroke-linejoin="round"></path><path style="stroke-width:4px;stroke:transparent" d="M 2669 2589.5 L 2716 2589.5  " fill="none" pointer-events="stroke"></path><marker id="arrowhead_arr_ayQlb9P4hDYDqGvimZ7Iv" refX="1" refY="3" orient="auto" markerWidth="8" markerHeight="8"><path d="M2.91922181,1.64495663 L4.49787879,4.07365967 C4.64837316,4.30518948 4.58268096,4.61488128 4.35115115,4.76537565 C4.27004602,4.81809399 4.17538993,4.84615385 4.07865698,4.84615385 L0.921343022,4.84615385 C0.645200647,4.84615385 0.421343022,4.62229622 0.421343022,4.34615385 C0.421343022,4.24942089 0.44940288,4.1547648 0.502121214,4.07365967 L2.08077819,1.64495663 C2.23127257,1.41342682 2.54096436,1.34773462 2.77249418,1.498229 C2.83112579,1.53633954 2.88111126,1.58632502 2.91922181,1.64495663 Z" fill="#afb4b7" transform="translate(2.500000, 2.923077) rotate(90.000000) translate(-2.500000, -2.923077)"></path></marker><path style="stroke-width:2px;stroke:#afb4b7" stroke-linecap="round" marker-end="url(#arrowhead_arr_ayQlb9P4hDYDqGvimZ7Iv)" d="M 2721 2580.5 L 2674 2580.5  " fill="none" pointer-events="stroke" stroke-linejoin="round"></path><path style="stroke-width:4px;stroke:transparent" d="M 2721 2580.5 L 2674 2580.5  " fill="none" pointer-events="stroke"></path><marker id="arrowhead_arr_Fjd3O4fgq5Bo9i2oUIxqb" refX="1" refY="3" orient="auto" markerWidth="8" markerHeight="8"><path d="M2.91922181,1.64495663 L4.49787879,4.07365967 C4.64837316,4.30518948 4.58268096,4.61488128 4.35115115,4.76537565 C4.27004602,4.81809399 4.17538993,4.84615385 4.07865698,4.84615385 L0.921343022,4.84615385 C0.645200647,4.84615385 0.421343022,4.62229622 0.421343022,4.34615385 C0.421343022,4.24942089 0.44940288,4.1547648 0.502121214,4.07365967 L2.08077819,1.64495663 C2.23127257,1.41342682 2.54096436,1.34773462 2.77249418,1.498229 C2.83112579,1.53633954 2.88111126,1.58632502 2.91922181,1.64495663 Z" fill="#afb4b7" transform="translate(2.500000, 2.923077) rotate(90.000000) translate(-2.500000, -2.923077)"></path></marker><path style="stroke-width:2px;stroke:#afb4b7" stroke-linecap="round" marker-end="url(#arrowhead_arr_Fjd3O4fgq5Bo9i2oUIxqb)" d="M 2669 2809.5 L 2716 2809.5  " fill="none" pointer-events="stroke" stroke-linejoin="round"></path><path style="stroke-width:4px;stroke:transparent" d="M 2669 2809.5 L 2716 2809.5  " fill="none" pointer-events="stroke"></path><marker id="arrowhead_arr_3LIhhs8zKK7vmWVNBfUQe" refX="1" refY="3" orient="auto" markerWidth="8" markerHeight="8"><path d="M2.91922181,1.64495663 L4.49787879,4.07365967 C4.64837316,4.30518948 4.58268096,4.61488128 4.35115115,4.76537565 C4.27004602,4.81809399 4.17538993,4.84615385 4.07865698,4.84615385 L0.921343022,4.84615385 C0.645200647,4.84615385 0.421343022,4.62229622 0.421343022,4.34615385 C0.421343022,4.24942089 0.44940288,4.1547648 0.502121214,4.07365967 L2.08077819,1.64495663 C2.23127257,1.41342682 2.54096436,1.34773462 2.77249418,1.498229 C2.83112579,1.53633954 2.88111126,1.58632502 2.91922181,1.64495663 Z" fill="#afb4b7" transform="translate(2.500000, 2.923077) rotate(90.000000) translate(-2.500000, -2.923077)"></path></marker><path style="stroke-width:2px;stroke:#afb4b7" stroke-linecap="round" marker-end="url(#arrowhead_arr_3LIhhs8zKK7vmWVNBfUQe)" d="M 2721 2800.5 L 2674 2800.5  " fill="none" pointer-events="stroke" stroke-linejoin="round"></path><path style="stroke-width:4px;stroke:transparent" d="M 2721 2800.5 L 2674 2800.5  " fill="none" pointer-events="stroke"></path><marker id="arrowhead_src_arr_rKqmADiGKMstuzinIgLaS" refX="4" refY="3" orient="auto" markerWidth="8" markerHeight="8"><path d="M2.91922181,1.64495663 L4.49787879,4.07365967 C4.64837316,4.30518948 4.58268096,4.61488128 4.35115115,4.76537565 C4.27004602,4.81809399 4.17538993,4.84615385 4.07865698,4.84615385 L0.921343022,4.84615385 C0.645200647,4.84615385 0.421343022,4.62229622 0.421343022,4.34615385 C0.421343022,4.24942089 0.44940288,4.1547648 0.502121214,4.07365967 L2.08077819,1.64495663 C2.23127257,1.41342682 2.54096436,1.34773462 2.77249418,1.498229 C2.83112579,1.53633954 2.88111126,1.58632502 2.91922181,1.64495663 Z" fill="#afb4b7" transform="translate(2.500000, 2.923077) rotate(270.000000) translate(-2.500000, -2.923077)"></path></marker><path style="stroke-width:2px;stroke:#afb4b7" stroke-linecap="round" marker-start="url(#arrowhead_src_arr_rKqmADiGKMstuzinIgLaS)" d="M 2635.5 2632 L 2635.5 2686.5 C 2635.5 2688.5 2633.5 2690.5 2631.5 2690.5 L 2546.03125 2690.5 M 2486.46875 2690.5 L 2397 2690.5  " fill="none" pointer-events="stroke" stroke-linejoin="round"></path><path style="stroke-width:4px;stroke:transparent" d="M 2635.5 2632 L 2635.5 2686.5 C 2635.5 2688.5 2633.5 2690.5 2631.5 2690.5 L 2546.03125 2690.5 M 2486.46875 2690.5 L 2397 2690.5  " fill="none" pointer-events="stroke"></path><path id="arr_rKqmADiGKMstuzinIgLaS-label" d="M 2486.46875 2690.5 L 2546.03125 2690.5  "></path><text font-size="8" dominant-baseline="middle"><textPath href="#arr_rKqmADiGKMstuzinIgLaS-label" alignment-baseline="middle" dominant-baseline="middle" startOffset="3">consume data</textPath></text><marker id="arrowhead_arr_zabodV0yN8oF9iLv6QrDO" refX="1" refY="3" orient="auto" markerWidth="8" markerHeight="8"><path d="M2.91922181,1.64495663 L4.49787879,4.07365967 C4.64837316,4.30518948 4.58268096,4.61488128 4.35115115,4.76537565 C4.27004602,4.81809399 4.17538993,4.84615385 4.07865698,4.84615385 L0.921343022,4.84615385 C0.645200647,4.84615385 0.421343022,4.62229622 0.421343022,4.34615385 C0.421343022,4.24942089 0.44940288,4.1547648 0.502121214,4.07365967 L2.08077819,1.64495663 C2.23127257,1.41342682 2.54096436,1.34773462 2.77249418,1.498229 C2.83112579,1.53633954 2.88111126,1.58632502 2.91922181,1.64495663 Z" fill="#afb4b7" transform="translate(2.500000, 2.923077) rotate(90.000000) translate(-2.500000, -2.923077)"></path></marker><path style="stroke-width:2px;stroke:#afb4b7" stroke-linecap="round" marker-end="url(#arrowhead_arr_zabodV0yN8oF9iLv6QrDO)" d="M 2644.5 2627 L 2644.5 2686.5 C 2644.5 2688.5 2646.5 2690.5 2648.5 2690.5 L 2766.2875 2690.5 M 2814.2125 2690.5 L 2936 2690.5  " fill="none" pointer-events="stroke" stroke-linejoin="round"></path><path style="stroke-width:4px;stroke:transparent" d="M 2644.5 2627 L 2644.5 2686.5 C 2644.5 2688.5 2646.5 2690.5 2648.5 2690.5 L 2766.2875 2690.5 M 2814.2125 2690.5 L 2936 2690.5  " fill="none" pointer-events="stroke"></path><path id="arr_zabodV0yN8oF9iLv6QrDO-label" d="M 2766.2875 2690.5 L 2814.2125 2690.5  "></path><text font-size="8" dominant-baseline="middle"><textPath href="#arr_zabodV0yN8oF9iLv6QrDO-label" alignment-baseline="middle" dominant-baseline="middle" startOffset="3">send alerts</textPath></text><marker id="arrowhead_src_arr_XKzROfxTZBRARnQrfWWAL" refX="4" refY="3" orient="auto" markerWidth="8" markerHeight="8"><path d="M2.91922181,1.64495663 L4.49787879,4.07365967 C4.64837316,4.30518948 4.58268096,4.61488128 4.35115115,4.76537565 C4.27004602,4.81809399 4.17538993,4.84615385 4.07865698,4.84615385 L0.921343022,4.84615385 C0.645200647,4.84615385 0.421343022,4.62229622 0.421343022,4.34615385 C0.421343022,4.24942089 0.44940288,4.1547648 0.502121214,4.07365967 L2.08077819,1.64495663 C2.23127257,1.41342682 2.54096436,1.34773462 2.77249418,1.498229 C2.83112579,1.53633954 2.88111126,1.58632502 2.91922181,1.64495663 Z" fill="#afb4b7" transform="translate(2.500000, 2.923077) rotate(270.000000) translate(-2.500000, -2.923077)"></path></marker><path style="stroke-width:2px;stroke:#afb4b7" stroke-linecap="round" marker-start="url(#arrowhead_src_arr_XKzROfxTZBRARnQrfWWAL)" d="M 2635.5 2771 L 2635.5 2703.5 C 2635.5 2701.5 2633.5 2699.5 2631.5 2699.5 L 2397 2699.5  " fill="none" pointer-events="stroke" stroke-linejoin="round"></path><path style="stroke-width:4px;stroke:transparent" d="M 2635.5 2771 L 2635.5 2703.5 C 2635.5 2701.5 2633.5 2699.5 2631.5 2699.5 L 2397 2699.5  " fill="none" pointer-events="stroke"></path><marker id="arrowhead_arr_yWmVMDfIe4NbcBXw3wc3N" refX="1" refY="3" orient="auto" markerWidth="8" markerHeight="8"><path d="M2.91922181,1.64495663 L4.49787879,4.07365967 C4.64837316,4.30518948 4.58268096,4.61488128 4.35115115,4.76537565 C4.27004602,4.81809399 4.17538993,4.84615385 4.07865698,4.84615385 L0.921343022,4.84615385 C0.645200647,4.84615385 0.421343022,4.62229622 0.421343022,4.34615385 C0.421343022,4.24942089 0.44940288,4.1547648 0.502121214,4.07365967 L2.08077819,1.64495663 C2.23127257,1.41342682 2.54096436,1.34773462 2.77249418,1.498229 C2.83112579,1.53633954 2.88111126,1.58632502 2.91922181,1.64495663 Z" fill="#afb4b7" transform="translate(2.500000, 2.923077) rotate(90.000000) translate(-2.500000, -2.923077)"></path></marker><path style="stroke-width:2px;stroke:#afb4b7" stroke-linecap="round" marker-end="url(#arrowhead_arr_yWmVMDfIe4NbcBXw3wc3N)" d="M 2644.5 2776 L 2644.5 2703.5 C 2644.5 2701.5 2646.5 2699.5 2648.5 2699.5 L 2936 2699.5  " fill="none" pointer-events="stroke" stroke-linejoin="round"></path><path style="stroke-width:4px;stroke:transparent" d="M 2644.5 2776 L 2644.5 2703.5 C 2644.5 2701.5 2646.5 2699.5 2648.5 2699.5 L 2936 2699.5  " fill="none" pointer-events="stroke"></path></g></svg>