<svg xmlns="http://www.w3.org/2000/svg" id="canvas" width="860" height="640" viewBox="2210 2100 860 640" style="position:fixed;overflow:hidden;top:0px;left:0px;width:100%;height:100%;pointer-events:all;user-select:none;-webkit-user-select:none;-moz-user-select:none;font-family:Inter, arial, sans-serif;cursor:default;touch-action:none;outline:none"><defs><marker id="arrowhead" refX="1" refY="3" orient="auto" markerWidth="8" markerHeight="8"><path d="M2.91922181,1.64495663 L4.49787879,4.07365967 C4.64837316,4.30518948 4.58268096,4.61488128 4.35115115,4.76537565 C4.27004602,4.81809399 4.17538993,4.84615385 4.07865698,4.84615385 L0.921343022,4.84615385 C0.645200647,4.84615385 0.421343022,4.62229622 0.421343022,4.34615385 C0.421343022,4.24942089 0.44940288,4.1547648 0.502121214,4.07365967 L2.08077819,1.64495663 C2.23127257,1.41342682 2.54096436,1.34773462 2.77249418,1.498229 C2.83112579,1.53633954 2.88111126,1.58632502 2.91922181,1.64495663 Z" fill="#9babcf" transform="translate(2.500000, 2.923077) rotate(90.000000) translate(-2.500000, -2.923077)"></path></marker><marker id="arrowhead-selected" refX="1" refY="3" orient="auto" markerWidth="10" markerHeight="10"><path d="M2.91922181,1.64495663 L4.49787879,4.07365967 C4.64837316,4.30518948 4.58268096,4.61488128 4.35115115,4.76537565 C4.27004602,4.81809399 4.17538993,4.84615385 4.07865698,4.84615385 L0.921343022,4.84615385 C0.645200647,4.84615385 0.421343022,4.62229622 0.421343022,4.34615385 C0.421343022,4.24942089 0.44940288,4.1547648 0.502121214,4.07365967 L2.08077819,1.64495663 C2.23127257,1.41342682 2.54096436,1.34773462 2.77249418,1.498229 C2.83112579,1.53633954 2.88111126,1.58632502 2.91922181,1.64495663 Z" fill="#3366FF" transform="translate(2.500000, 2.923077) rotate(90.000000) translate(-2.500000, -2.923077) "></path></marker><pattern id="error-pattern" patternUnits="userSpaceOnUse" patternTransform="rotate(45 0 0)" width="5" height="5"><line x1="0" y1="0" x2="0" y2="5" stroke="#db4324" stroke-width="1"></line></pattern></defs><g id="wrapper" transform="translate(0, 0) scale(1)"><g transform="translate(2479, 2370)"><mask id="ctr_B7iAJL1j1kippxctAKVqg-mask"><rect x="-3" y="-3" width="336" height="116" fill="white"></rect><rect x="86.0375" y="-3" width="157.925" height="6" fill="black"></rect></mask><rect width="322" height="100" fill="#fafcfe" stroke="#ccdaf9" stroke-width="2px" stroke-opacity="1" rx="10" ry="10" mask="url(#ctr_B7iAJL1j1kippxctAKVqg-mask)"></rect><g><rect width="16" height="16" x="-8" y="-8" fill="transparent"></rect><rect width="16" height="16" x="322" y="-8" fill="transparent"></rect><rect width="16" height="16" x="-8" y="102" fill="transparent"></rect><rect width="16" height="16" x="322" y="102" fill="transparent"></rect><rect width="16" height="94" x="-8" y="8" fill="transparent"></rect><rect width="16" height="94" x="322" y="8" fill="transparent"></rect><rect width="314" height="16" x="8" y="-8" fill="transparent"></rect><rect width="314" height="16" x="8" y="102" fill="transparent"></rect></g><g><g transform="translate(86.0375, -10)"><svg viewBox="0 0 50 50" width="22" height="22"><svg id="NbSQIP3HVpk2bWY6tr_zg" xmlns="http://www.w3.org/2000/svg" viewBox="4.2 4.76 41.6 40.41" width="50" height="50"><g fill="none" fill-rule="evenodd"><g clip-path="url(#_LL4Do3kkx-VytNehaXyy)"><path fill="#326CE5" d="M24.886 6.62c-.335.017-.663.1-.965.245l-13.173 6.294a2.49 2.49 0 0 0-1.363 1.695l-3.25 14.138a2.478 2.478 0 0 0 .485 2.115l9.118 11.337a2.515 2.515 0 0 0 1.97.94l14.621-.004a2.535 2.535 0 0 0 1.97-.938l9.114-11.339a2.49 2.49 0 0 0 .487-2.114L40.645 14.85a2.515 2.515 0 0 0-1.363-1.695l-13.174-6.29c-.38-.182-.8-.266-1.222-.245Z"></path><path fill="#fff" d="M24.88 5.597c-.354.018-.7.106-1.018.26L9.954 12.498c-.36.172-.676.422-.925.732-.25.31-.425.671-.514 1.057l-3.43 14.926a2.617 2.617 0 0 0 .512 2.232l9.625 11.968a2.656 2.656 0 0 0 2.079.993l15.436-.004a2.677 2.677 0 0 0 2.079-.99l9.621-11.97a2.63 2.63 0 0 0 .514-2.231l-3.435-14.927a2.629 2.629 0 0 0-1.439-1.787L26.17 5.854a2.678 2.678 0 0 0-1.29-.257Zm.006 1.024c.421-.021.841.063 1.221.244l13.175 6.291a2.515 2.515 0 0 1 1.363 1.695L43.9 28.99a2.48 2.48 0 0 1-.487 2.114L34.3 42.442a2.515 2.515 0 0 1-1.97.939l-14.622.003a2.537 2.537 0 0 1-1.97-.94L6.62 31.107a2.487 2.487 0 0 1-.485-2.114l3.25-14.138a2.49 2.49 0 0 1 .486-1.002c.236-.294.535-.53.876-.693L23.92 6.865c.303-.144.63-.227.966-.244Z"></path><path fill="#fff" d="M31.112 34.033h-5.036L15.162 20.38h-3.158v-4.469h5.134l10.919 13.653h3.055V26.03l6.92 5.766-6.92 5.771v-3.534ZM25.62 23.486l2.437-3.05h3.055v3.534l6.92-5.766-6.92-5.771v3.534h-5.036l-3.232 4.046 2.776 3.473Zm-7.98 3.028-2.478 3.106h-3.158v4.469h5.134l3.278-4.102-2.776-3.473Z"></path></g><defs><clipPath id="_LL4Do3kkx-VytNehaXyy"><path fill="#fff" d="M0 0h40v38.813H0z" transform="translate(5.018 5.593)"></path></clipPath></defs></g></svg></svg></g><text x="114.0375" y="4" font-size="12" font-weight="400" fill="black">OpenFunction Domain</text></g></g><g transform="translate(2314, 2535)"><mask id="ctr_ERbiZckW4uLQfysiokbz8-mask"><rect x="-3" y="-3" width="226" height="116" fill="white"></rect><rect x="54.315625" y="-3" width="111.36875" height="6" fill="black"></rect></mask><rect width="212" height="100" fill="#fafcfe" stroke="#ccdaf9" stroke-width="2px" stroke-opacity="1" rx="10" ry="10" mask="url(#ctr_ERbiZckW4uLQfysiokbz8-mask)"></rect><g><rect width="16" height="16" x="-8" y="-8" fill="transparent"></rect><rect width="16" height="16" x="212" y="-8" fill="transparent"></rect><rect width="16" height="16" x="-8" y="102" fill="transparent"></rect><rect width="16" height="16" x="212" y="102" fill="transparent"></rect><rect width="16" height="94" x="-8" y="8" fill="transparent"></rect><rect width="16" height="94" x="212" y="8" fill="transparent"></rect><rect width="204" height="16" x="8" y="-8" fill="transparent"></rect><rect width="204" height="16" x="8" y="102" fill="transparent"></rect></g><g><g transform="translate(54.315625, -10)"><svg viewBox="0 0 50 50" width="22" height="22"><svg id="Jg-V8oXNW1BXIPphsIskL" xmlns="http://www.w3.org/2000/svg" viewBox="4.26 4.76 41.6 40.41" width="50" height="50"><g fill="none" fill-rule="evenodd"><g clip-path="url(#vXDvMM4u3FAK-hHXJD6Yy)"><path fill="#326CE5" d="M24.94 6.62c-.335.017-.663.1-.965.245l-13.173 6.294a2.49 2.49 0 0 0-1.363 1.695l-3.25 14.138a2.478 2.478 0 0 0 .485 2.115l9.118 11.337a2.515 2.515 0 0 0 1.97.94l14.621-.004a2.535 2.535 0 0 0 1.97-.938l9.114-11.339a2.49 2.49 0 0 0 .487-2.114L40.7 14.85a2.49 2.49 0 0 0-1.363-1.694L26.162 6.865c-.38-.182-.8-.266-1.222-.245Z"></path><path fill="#fff" d="M24.933 5.597c-.353.018-.7.106-1.017.26l-13.908 6.642c-.36.172-.676.422-.925.732-.25.31-.425.671-.514 1.057l-3.43 14.926a2.617 2.617 0 0 0 .512 2.232l9.625 11.968a2.657 2.657 0 0 0 2.079.993l15.436-.004a2.677 2.677 0 0 0 2.079-.99l9.621-11.97a2.628 2.628 0 0 0 .514-2.231L41.57 14.285a2.627 2.627 0 0 0-.514-1.056c-.249-.31-.565-.56-.925-.731L26.224 5.854a2.678 2.678 0 0 0-1.29-.257Zm.007 1.024c.421-.021.841.063 1.221.244l13.175 6.291a2.515 2.515 0 0 1 1.363 1.695l3.255 14.139a2.48 2.48 0 0 1-.487 2.114l-9.114 11.338a2.515 2.515 0 0 1-1.97.939l-14.622.003a2.536 2.536 0 0 1-1.97-.94L6.675 31.107a2.487 2.487 0 0 1-.485-2.114l3.25-14.138a2.49 2.49 0 0 1 .486-1.002c.236-.294.535-.53.876-.693l13.173-6.295c.303-.144.63-.227.966-.244Z"></path><path fill="#fff" d="m17.041 19.374 8.03-2.33 8.031 2.33-8.03 2.329-8.03-2.33zm0 .892v8.544l7.482 4.145.038-10.453-7.52-2.236zm16.061 0v8.544l-7.482 4.145-.037-10.453 7.52-2.236z" clip-rule="evenodd"></path></g><defs><clipPath id="vXDvMM4u3FAK-hHXJD6Yy"><path fill="#fff" d="M0 0h40v38.813H0z" transform="translate(5.072 5.593)"></path></clipPath></defs></g></svg></svg></g><text x="82.315625" y="4" font-size="12" font-weight="400" fill="black">function-front</text></g></g><g transform="translate(2754, 2535)"><mask id="ctr_xBkmg5x1uE9DvWvfIaZTn-mask"><rect x="-3" y="-3" width="226" height="116" fill="white"></rect><rect x="55.506249999999994" y="-3" width="108.98750000000001" height="6" fill="black"></rect></mask><rect width="212" height="100" fill="#fafcfe" stroke="#ccdaf9" stroke-width="2px" stroke-opacity="1" rx="10" ry="10" mask="url(#ctr_xBkmg5x1uE9DvWvfIaZTn-mask)"></rect><g><rect width="16" height="16" x="-8" y="-8" fill="transparent"></rect><rect width="16" height="16" x="212" y="-8" fill="transparent"></rect><rect width="16" height="16" x="-8" y="102" fill="transparent"></rect><rect width="16" height="16" x="212" y="102" fill="transparent"></rect><rect width="16" height="94" x="-8" y="8" fill="transparent"></rect><rect width="16" height="94" x="212" y="8" fill="transparent"></rect><rect width="204" height="16" x="8" y="-8" fill="transparent"></rect><rect width="204" height="16" x="8" y="102" fill="transparent"></rect></g><g><g transform="translate(55.506249999999994, -10)"><svg viewBox="0 0 50 50" width="22" height="22"><svg id="78xFgisq-m73hCB0PX5TM" xmlns="http://www.w3.org/2000/svg" viewBox="4.26 4.76 41.6 40.41" width="50" height="50"><g fill="none" fill-rule="evenodd"><g clip-path="url(#N_FdZGO-JwElwtix2jpEG)"><path fill="#326CE5" d="M24.94 6.62c-.335.017-.663.1-.965.245l-13.173 6.294a2.49 2.49 0 0 0-1.363 1.695l-3.25 14.138a2.478 2.478 0 0 0 .485 2.115l9.118 11.337a2.515 2.515 0 0 0 1.97.94l14.621-.004a2.535 2.535 0 0 0 1.97-.938l9.114-11.339a2.49 2.49 0 0 0 .487-2.114L40.7 14.85a2.49 2.49 0 0 0-1.363-1.694L26.162 6.865c-.38-.182-.8-.266-1.222-.245Z"></path><path fill="#fff" d="M24.933 5.597c-.353.018-.7.106-1.017.26l-13.908 6.642c-.36.172-.676.422-.925.732-.25.31-.425.671-.514 1.057l-3.43 14.926a2.617 2.617 0 0 0 .512 2.232l9.625 11.968a2.657 2.657 0 0 0 2.079.993l15.436-.004a2.677 2.677 0 0 0 2.079-.99l9.621-11.97a2.628 2.628 0 0 0 .514-2.231L41.57 14.285a2.627 2.627 0 0 0-.514-1.056c-.249-.31-.565-.56-.925-.731L26.224 5.854a2.678 2.678 0 0 0-1.29-.257Zm.007 1.024c.421-.021.841.063 1.221.244l13.175 6.291a2.515 2.515 0 0 1 1.363 1.695l3.255 14.139a2.48 2.48 0 0 1-.487 2.114l-9.114 11.338a2.515 2.515 0 0 1-1.97.939l-14.622.003a2.536 2.536 0 0 1-1.97-.94L6.675 31.107a2.487 2.487 0 0 1-.485-2.114l3.25-14.138a2.49 2.49 0 0 1 .486-1.002c.236-.294.535-.53.876-.693l13.173-6.295c.303-.144.63-.227.966-.244Z"></path><path fill="#fff" d="m17.041 19.374 8.03-2.33 8.031 2.33-8.03 2.329-8.03-2.33zm0 .892v8.544l7.482 4.145.038-10.453-7.52-2.236zm16.061 0v8.544l-7.482 4.145-.037-10.453 7.52-2.236z" clip-rule="evenodd"></path></g><defs><clipPath id="N_FdZGO-JwElwtix2jpEG"><path fill="#fff" d="M0 0h40v38.813H0z" transform="translate(5.072 5.593)"></path></clipPath></defs></g></svg></svg></g><text x="83.50625" y="4" font-size="12" font-weight="400" fill="black">output-target</text></g></g><g transform="translate(2475, 2365)"><g transform="translate(5,5)"><g transform="translate(0,-4)"><text y="41"><tspan dy="18" x="160" text-anchor="middle"><tspan text-decoration="none" font-style="normal" font-size="13px" font-weight="normal" style="font-weight:normal" fill="black">🔗 http://openfunction.io/default/function-front</tspan></tspan></text></g></g><rect x="0" y="0" width="330" height="110" fill="none" stroke="none"></rect></g><g transform="translate(2585,2200)" width="110" height="110"><g transform="translate(30,30)"><path stroke="none" d="
    M 0, 16.6
    C 0, 2.9299 2.9299, 0 16.6, 0
    L 33.4, 0
    C 47.0701, 0 50, 2.9299 50, 16.6
    L 50, 33.4
    C 50, 47.0701 47.0701, 50 33.4, 50
    L 16.6, 50
    C 2.9299, 50 0, 47.0701 0, 33.4
    L 0, 16.6
  " stroke-width="2" fill="#dfe1e3"></path></g><svg viewBox="0 0 50 50" width="35" height="35" x="37.5" y="37.5"><svg id="IRDALk8u95wyLTxHa552V" xmlns="http://www.w3.org/2000/svg" viewBox="0 0 640 512" width="50" height="50"><path fill="#232F3D" d="M96 224c35.3 0 64-28.7 64-64s-28.7-64-64-64-64 28.7-64 64 28.7 64 64 64zm448 0c35.3 0 64-28.7 64-64s-28.7-64-64-64-64 28.7-64 64 28.7 64 64 64zm32 32h-64c-17.6 0-33.5 7.1-45.1 18.6 40.3 22.1 68.9 62 75.1 109.4h66c17.7 0 32-14.3 32-32v-32c0-35.3-28.7-64-64-64zm-256 0c61.9 0 112-50.1 112-112S381.9 32 320 32 208 82.1 208 144s50.1 112 112 112zm76.8 32h-8.3c-20.8 10-43.9 16-68.5 16s-47.6-6-68.5-16h-8.3C179.6 288 128 339.6 128 403.2V432c0 26.5 21.5 48 48 48h288c26.5 0 48-21.5 48-48v-28.8c0-63.6-51.6-115.2-115.2-115.2zm-223.7-13.4C161.5 263.1 145.6 256 128 256H64c-35.3 0-64 28.7-64 64v32c0 17.7 14.3 32 32 32h65.9c6.3-47.4 34.9-87.3 75.2-109.4z"></path></svg></svg><g transform="translate(55, 89)"><text x="0" y="0" text-anchor="middle" style="fill:#101840;font-size:10px" dominant-baseline="middle" alignment-baseline="middle"><tspan>Clients</tspan></text></g><rect width="60" height="60" x="25" y="25" fill="transparent"></rect><rect width="40" height="40" x="35" y="35" fill="transparent"></rect></g><g transform="translate(2420,2530)" width="110" height="110"><g transform="translate(30,30)"><path stroke="none" d="
    M 0, 16.6
    C 0, 2.9299 2.9299, 0 16.6, 0
    L 33.4, 0
    C 47.0701, 0 50, 2.9299 50, 16.6
    L 50, 33.4
    C 50, 47.0701 47.0701, 50 33.4, 50
    L 16.6, 50
    C 2.9299, 50 0, 47.0701 0, 33.4
    L 0, 16.6
  " stroke-width="2" fill="#dfe1e3"></path></g><svg viewBox="0 0 50 50" width="35" height="35" x="37.5" y="37.5"><svg id="Ez1cKarYuLlCHiULLGjgB" xmlns="http://www.w3.org/2000/svg" viewBox="0 0 640 512" width="50" height="50"><path fill="#232F3D" d="M490 296.9C480.51 239.51 450.51 64 392.3 64c-14 0-26.49 5.93-37 14a58.21 58.21 0 0 1-70.58 0c-10.51-8-23-14-37-14-58.2 0-88.2 175.47-97.71 232.88C188.81 309.47 243.73 320 320 320s131.23-10.51 170-23.1zm142.9-37.18a16 16 0 0 0-19.75 1.5c-1 .9-101.27 90.78-293.16 90.78-190.82 0-292.22-89.94-293.24-90.84A16 16 0 0 0 1 278.53C1.73 280.55 78.32 480 320 480s318.27-199.45 319-201.47a16 16 0 0 0-6.09-18.81z"></path></svg></svg><g transform="translate(55, 89)"><text x="0" y="0" text-anchor="middle" style="fill:#101840;font-size:10px" dominant-baseline="middle" alignment-baseline="middle"><tspan>Dapr Sidecar</tspan></text></g><rect width="60" height="60" x="25" y="25" fill="transparent"></rect><rect width="40" height="40" x="35" y="35" fill="transparent"></rect></g><g transform="translate(2310,2530)" width="110" height="110"><g transform="translate(30,30)"><path stroke="none" d="
    M 0, 16.6
    C 0, 2.9299 2.9299, 0 16.6, 0
    L 33.4, 0
    C 47.0701, 0 50, 2.9299 50, 16.6
    L 50, 33.4
    C 50, 47.0701 47.0701, 50 33.4, 50
    L 16.6, 50
    C 2.9299, 50 0, 47.0701 0, 33.4
    L 0, 16.6
  " stroke-width="2" fill="#dfe1e3"></path></g><svg viewBox="0 0 50 50" width="35" height="35" x="37.5" y="37.5"><svg id="vIPADhSt3SsMqMxzQvxd6" xmlns="http://www.w3.org/2000/svg" viewBox="0 0 640 512" width="50" height="50"><path fill="#232F3D" d="m278.9 511.5-61-17.7c-6.4-1.8-10-8.5-8.2-14.9L346.2 8.7c1.8-6.4 8.5-10 14.9-8.2l61 17.7c6.4 1.8 10 8.5 8.2 14.9L293.8 503.3c-1.9 6.4-8.5 10.1-14.9 8.2zm-114-112.2 43.5-46.4c4.6-4.9 4.3-12.7-.8-17.2L117 256l90.6-79.7c5.1-4.5 5.5-12.3.8-17.2l-43.5-46.4c-4.5-4.8-12.1-5.1-17-.5L3.8 247.2c-5.1 4.7-5.1 12.8 0 17.5l144.1 135.1c4.9 4.6 12.5 4.4 17-.5zm327.2.6 144.1-135.1c5.1-4.7 5.1-12.8 0-17.5L492.1 112.1c-4.8-4.5-12.4-4.3-17 .5L431.6 159c-4.6 4.9-4.3 12.7.8 17.2L523 256l-90.6 79.7c-5.1 4.5-5.5 12.3-.8 17.2l43.5 46.4c4.5 4.9 12.1 5.1 17 .6z"></path></svg></svg><g transform="translate(55, 89)"><text x="0" y="0" text-anchor="middle" style="fill:#101840;font-size:10px" dominant-baseline="middle" alignment-baseline="middle"><tspan>Sync Function</tspan></text></g><rect width="60" height="60" x="25" y="25" fill="transparent"></rect><rect width="40" height="40" x="35" y="35" fill="transparent"></rect></g><g transform="translate(2860,2530)" width="110" height="110"><g transform="translate(30,30)"><path stroke="none" d="
    M 0, 16.6
    C 0, 2.9299 2.9299, 0 16.6, 0
    L 33.4, 0
    C 47.0701, 0 50, 2.9299 50, 16.6
    L 50, 33.4
    C 50, 47.0701 47.0701, 50 33.4, 50
    L 16.6, 50
    C 2.9299, 50 0, 47.0701 0, 33.4
    L 0, 16.6
  " stroke-width="2" fill="#dfe1e3"></path></g><svg viewBox="0 0 50 50" width="35" height="35" x="37.5" y="37.5"><svg id="k7Io7LMYzLcBRBuqVdmAq" xmlns="http://www.w3.org/2000/svg" viewBox="0 0 640 512" width="50" height="50"><path fill="#232F3D" d="m278.9 511.5-61-17.7c-6.4-1.8-10-8.5-8.2-14.9L346.2 8.7c1.8-6.4 8.5-10 14.9-8.2l61 17.7c6.4 1.8 10 8.5 8.2 14.9L293.8 503.3c-1.9 6.4-8.5 10.1-14.9 8.2zm-114-112.2 43.5-46.4c4.6-4.9 4.3-12.7-.8-17.2L117 256l90.6-79.7c5.1-4.5 5.5-12.3.8-17.2l-43.5-46.4c-4.5-4.8-12.1-5.1-17-.5L3.8 247.2c-5.1 4.7-5.1 12.8 0 17.5l144.1 135.1c4.9 4.6 12.5 4.4 17-.5zm327.2.6 144.1-135.1c5.1-4.7 5.1-12.8 0-17.5L492.1 112.1c-4.8-4.5-12.4-4.3-17 .5L431.6 159c-4.6 4.9-4.3 12.7.8 17.2L523 256l-90.6 79.7c-5.1 4.5-5.5 12.3-.8 17.2l43.5 46.4c4.5 4.9 12.1 5.1 17 .6z"></path></svg></svg><g transform="translate(55, 89)"><text x="0" y="0" text-anchor="middle" style="fill:#101840;font-size:10px" dominant-baseline="middle" alignment-baseline="middle"><tspan>Async Function</tspan></text></g><rect width="60" height="60" x="25" y="25" fill="transparent"></rect><rect width="40" height="40" x="35" y="35" fill="transparent"></rect></g><g transform="translate(2750,2530)" width="110" height="110"><g transform="translate(30,30)"><path stroke="none" d="
    M 0, 16.6
    C 0, 2.9299 2.9299, 0 16.6, 0
    L 33.4, 0
    C 47.0701, 0 50, 2.9299 50, 16.6
    L 50, 33.4
    C 50, 47.0701 47.0701, 50 33.4, 50
    L 16.6, 50
    C 2.9299, 50 0, 47.0701 0, 33.4
    L 0, 16.6
  " stroke-width="2" fill="#dfe1e3"></path></g><svg viewBox="0 0 50 50" width="35" height="35" x="37.5" y="37.5"><svg id="gc8FXRcJAUWHm7tVhr7tZ" xmlns="http://www.w3.org/2000/svg" viewBox="0 0 640 512" width="50" height="50"><path fill="#232F3D" d="M490 296.9C480.51 239.51 450.51 64 392.3 64c-14 0-26.49 5.93-37 14a58.21 58.21 0 0 1-70.58 0c-10.51-8-23-14-37-14-58.2 0-88.2 175.47-97.71 232.88C188.81 309.47 243.73 320 320 320s131.23-10.51 170-23.1zm142.9-37.18a16 16 0 0 0-19.75 1.5c-1 .9-101.27 90.78-293.16 90.78-190.82 0-292.22-89.94-293.24-90.84A16 16 0 0 0 1 278.53C1.73 280.55 78.32 480 320 480s318.27-199.45 319-201.47a16 16 0 0 0-6.09-18.81z"></path></svg></svg><g transform="translate(55, 89)"><text x="0" y="0" text-anchor="middle" style="fill:#101840;font-size:10px" dominant-baseline="middle" alignment-baseline="middle"><tspan>Dapr Sidecar</tspan></text></g><rect width="60" height="60" x="25" y="25" fill="transparent"></rect><rect width="40" height="40" x="35" y="35" fill="transparent"></rect></g><g transform="translate(2585,2530)" width="110" height="110"><g transform="translate(30,30)"><path stroke="none" d="
    M 0, 16.6
    C 0, 2.9299 2.9299, 0 16.6, 0
    L 33.4, 0
    C 47.0701, 0 50, 2.9299 50, 16.6
    L 50, 33.4
    C 50, 47.0701 47.0701, 50 33.4, 50
    L 16.6, 50
    C 2.9299, 50 0, 47.0701 0, 33.4
    L 0, 16.6
  " stroke-width="2" fill="#e1e1e1"></path></g><svg viewBox="0 0 50 50" width="35" height="35" x="37.5" y="37.5"><svg id="9lqDTKzRr2c61oZAhpyS-" xmlns="http://www.w3.org/2000/svg" viewBox="11.83 4.58 26.29 41.6" width="50" height="50"><path fill="#231F20" fill-rule="evenodd" d="M32.104 27.578c-1.558 0-2.954.69-3.91 1.777l-2.451-1.735c.26-.716.41-1.485.41-2.29 0-.791-.145-1.547-.396-2.253l2.445-1.716a5.198 5.198 0 0 0 3.902 1.767 5.22 5.22 0 0 0 5.214-5.214 5.22 5.22 0 0 0-5.214-5.215 5.22 5.22 0 0 0-5.215 5.215c0 .514.078 1.01.218 1.48l-2.447 1.718a6.731 6.731 0 0 0-4.17-2.424V15.74a5.223 5.223 0 0 0 4.142-5.103 5.22 5.22 0 0 0-5.215-5.214 5.22 5.22 0 0 0-5.214 5.214 5.22 5.22 0 0 0 4.048 5.079v2.987c-3.159.554-5.57 3.311-5.57 6.627 0 3.332 2.435 6.099 5.617 6.634v3.154a5.221 5.221 0 0 0-4.095 5.09 5.22 5.22 0 0 0 5.214 5.215 5.22 5.22 0 0 0 5.214-5.214 5.221 5.221 0 0 0-4.095-5.09v-3.155a6.732 6.732 0 0 0 4.1-2.384l2.467 1.746a5.191 5.191 0 0 0-.214 1.466 5.22 5.22 0 0 0 5.215 5.215 5.22 5.22 0 0 0 5.214-5.215 5.22 5.22 0 0 0-5.214-5.214Zm0-12.193a2.531 2.531 0 0 1 2.528 2.529 2.531 2.531 0 0 1-2.528 2.528 2.531 2.531 0 0 1-2.528-2.528 2.531 2.531 0 0 1 2.528-2.529Zm-15.215-4.748a2.531 2.531 0 0 1 2.528-2.528 2.531 2.531 0 0 1 2.528 2.528 2.531 2.531 0 0 1-2.528 2.529 2.531 2.531 0 0 1-2.528-2.529Zm5.056 29.572a2.531 2.531 0 0 1-2.528 2.528 2.531 2.531 0 0 1-2.528-2.528 2.531 2.531 0 0 1 2.528-2.529 2.531 2.531 0 0 1 2.528 2.529Zm-2.528-11.353a3.53 3.53 0 0 1-3.526-3.526 3.53 3.53 0 0 1 3.526-3.526 3.53 3.53 0 0 1 3.526 3.526 3.53 3.53 0 0 1-3.526 3.526Zm12.687 6.465a2.531 2.531 0 0 1-2.528-2.529 2.531 2.531 0 0 1 2.528-2.528 2.531 2.531 0 0 1 2.528 2.528 2.531 2.531 0 0 1-2.528 2.529Z"></path></svg></svg><g transform="translate(55, 89)"><text x="0" y="0" text-anchor="middle" style="fill:#101840;font-size:10px" dominant-baseline="middle" alignment-baseline="middle"><tspan>Apache Kafka</tspan></text></g><rect width="60" height="60" x="25" y="25" fill="transparent"></rect><rect width="40" height="40" x="35" y="35" fill="transparent"></rect></g><marker id="arrowhead_arr_dqjIRRwrc7KhgPZT3KmLX" refX="1" refY="3" orient="auto" markerWidth="8" markerHeight="8"><path d="M2.91922181,1.64495663 L4.49787879,4.07365967 C4.64837316,4.30518948 4.58268096,4.61488128 4.35115115,4.76537565 C4.27004602,4.81809399 4.17538993,4.84615385 4.07865698,4.84615385 L0.921343022,4.84615385 C0.645200647,4.84615385 0.421343022,4.62229622 0.421343022,4.34615385 C0.421343022,4.24942089 0.44940288,4.1547648 0.502121214,4.07365967 L2.08077819,1.64495663 C2.23127257,1.41342682 2.54096436,1.34773462 2.77249418,1.498229 C2.83112579,1.53633954 2.88111126,1.58632502 2.91922181,1.64495663 Z" fill="#afb4b7" transform="translate(2.500000, 2.923077) rotate(90.000000) translate(-2.500000, -2.923077)"></path></marker><path style="stroke-width:2px;stroke:#afb4b7" stroke-linecap="round" marker-end="url(#arrowhead_arr_dqjIRRwrc7KhgPZT3KmLX)" d="M 2446 2589.5 L 2399 2589.5  " fill="none" pointer-events="stroke" stroke-linejoin="round"></path><path style="stroke-width:4px;stroke:transparent" d="M 2446 2589.5 L 2399 2589.5  " fill="none" pointer-events="stroke"></path><marker id="arrowhead_arr_QvUgmZU5jPrefuqv1LN28" refX="1" refY="3" orient="auto" markerWidth="8" markerHeight="8"><path d="M2.91922181,1.64495663 L4.49787879,4.07365967 C4.64837316,4.30518948 4.58268096,4.61488128 4.35115115,4.76537565 C4.27004602,4.81809399 4.17538993,4.84615385 4.07865698,4.84615385 L0.921343022,4.84615385 C0.645200647,4.84615385 0.421343022,4.62229622 0.421343022,4.34615385 C0.421343022,4.24942089 0.44940288,4.1547648 0.502121214,4.07365967 L2.08077819,1.64495663 C2.23127257,1.41342682 2.54096436,1.34773462 2.77249418,1.498229 C2.83112579,1.53633954 2.88111126,1.58632502 2.91922181,1.64495663 Z" fill="#afb4b7" transform="translate(2.500000, 2.923077) rotate(90.000000) translate(-2.500000, -2.923077)"></path></marker><path style="stroke-width:2px;stroke:#afb4b7" stroke-linecap="round" marker-end="url(#arrowhead_arr_QvUgmZU5jPrefuqv1LN28)" d="M 2394 2580.5 L 2441 2580.5  " fill="none" pointer-events="stroke" stroke-linejoin="round"></path><path style="stroke-width:4px;stroke:transparent" d="M 2394 2580.5 L 2441 2580.5  " fill="none" pointer-events="stroke"></path><marker id="arrowhead_arr_NgD92gV7uYiU2Q6Z0o1y9" refX="1" refY="3" orient="auto" markerWidth="8" markerHeight="8"><path d="M2.91922181,1.64495663 L4.49787879,4.07365967 C4.64837316,4.30518948 4.58268096,4.61488128 4.35115115,4.76537565 C4.27004602,4.81809399 4.17538993,4.84615385 4.07865698,4.84615385 L0.921343022,4.84615385 C0.645200647,4.84615385 0.421343022,4.62229622 0.421343022,4.34615385 C0.421343022,4.24942089 0.44940288,4.1547648 0.502121214,4.07365967 L2.08077819,1.64495663 C2.23127257,1.41342682 2.54096436,1.34773462 2.77249418,1.498229 C2.83112579,1.53633954 2.88111126,1.58632502 2.91922181,1.64495663 Z" fill="#afb4b7" transform="translate(2.500000, 2.923077) rotate(90.000000) translate(-2.500000, -2.923077)"></path></marker><path style="stroke-width:2px;stroke:#afb4b7" stroke-linecap="round" marker-end="url(#arrowhead_arr_NgD92gV7uYiU2Q6Z0o1y9)" d="M 2886 2589.5 L 2839 2589.5  " fill="none" pointer-events="stroke" stroke-linejoin="round"></path><path style="stroke-width:4px;stroke:transparent" d="M 2886 2589.5 L 2839 2589.5  " fill="none" pointer-events="stroke"></path><marker id="arrowhead_arr_1ZHY6RFLgMqUlz3EEPfph" refX="1" refY="3" orient="auto" markerWidth="8" markerHeight="8"><path d="M2.91922181,1.64495663 L4.49787879,4.07365967 C4.64837316,4.30518948 4.58268096,4.61488128 4.35115115,4.76537565 C4.27004602,4.81809399 4.17538993,4.84615385 4.07865698,4.84615385 L0.921343022,4.84615385 C0.645200647,4.84615385 0.421343022,4.62229622 0.421343022,4.34615385 C0.421343022,4.24942089 0.44940288,4.1547648 0.502121214,4.07365967 L2.08077819,1.64495663 C2.23127257,1.41342682 2.54096436,1.34773462 2.77249418,1.498229 C2.83112579,1.53633954 2.88111126,1.58632502 2.91922181,1.64495663 Z" fill="#afb4b7" transform="translate(2.500000, 2.923077) rotate(90.000000) translate(-2.500000, -2.923077)"></path></marker><path style="stroke-width:2px;stroke:#afb4b7" stroke-linecap="round" marker-end="url(#arrowhead_arr_1ZHY6RFLgMqUlz3EEPfph)" d="M 2834 2580.5 L 2881 2580.5  " fill="none" pointer-events="stroke" stroke-linejoin="round"></path><path style="stroke-width:4px;stroke:transparent" d="M 2834 2580.5 L 2881 2580.5  " fill="none" pointer-events="stroke"></path><marker id="arrowhead_arr_S5ql6juUapwAxZyTLFoeE" refX="1" refY="3" orient="auto" markerWidth="8" markerHeight="8"><path d="M2.91922181,1.64495663 L4.49787879,4.07365967 C4.64837316,4.30518948 4.58268096,4.61488128 4.35115115,4.76537565 C4.27004602,4.81809399 4.17538993,4.84615385 4.07865698,4.84615385 L0.921343022,4.84615385 C0.645200647,4.84615385 0.421343022,4.62229622 0.421343022,4.34615385 C0.421343022,4.24942089 0.44940288,4.1547648 0.502121214,4.07365967 L2.08077819,1.64495663 C2.23127257,1.41342682 2.54096436,1.34773462 2.77249418,1.498229 C2.83112579,1.53633954 2.88111126,1.58632502 2.91922181,1.64495663 Z" fill="#afb4b7" transform="translate(2.500000, 2.923077) rotate(90.000000) translate(-2.500000, -2.923077)"></path></marker><path style="stroke-width:2px;stroke:#afb4b7" stroke-linecap="round" marker-end="url(#arrowhead_arr_S5ql6juUapwAxZyTLFoeE)" d="M 2504 2585 L 2538.3875 2585 M 2571.6125 2585 L 2606 2585  " fill="none" pointer-events="stroke" stroke-linejoin="round"></path><path style="stroke-width:4px;stroke:transparent" d="M 2504 2585 L 2538.3875 2585 M 2571.6125 2585 L 2606 2585  " fill="none" pointer-events="stroke"></path><path id="arr_S5ql6juUapwAxZyTLFoeE-label" d="M 2538.3875 2585 L 2571.6125 2585  "></path><text font-size="8" dominant-baseline="middle"><textPath href="#arr_S5ql6juUapwAxZyTLFoeE-label" alignment-baseline="middle" dominant-baseline="middle" startOffset="3">publish</textPath></text><marker id="arrowhead_arr_6P5WIxA1urcWPAvPtp2wI" refX="1" refY="3" orient="auto" markerWidth="8" markerHeight="8"><path d="M2.91922181,1.64495663 L4.49787879,4.07365967 C4.64837316,4.30518948 4.58268096,4.61488128 4.35115115,4.76537565 C4.27004602,4.81809399 4.17538993,4.84615385 4.07865698,4.84615385 L0.921343022,4.84615385 C0.645200647,4.84615385 0.421343022,4.62229622 0.421343022,4.34615385 C0.421343022,4.24942089 0.44940288,4.1547648 0.502121214,4.07365967 L2.08077819,1.64495663 C2.23127257,1.41342682 2.54096436,1.34773462 2.77249418,1.498229 C2.83112579,1.53633954 2.88111126,1.58632502 2.91922181,1.64495663 Z" fill="#afb4b7" transform="translate(2.500000, 2.923077) rotate(90.000000) translate(-2.500000, -2.923077)"></path></marker><path style="stroke-width:2px;stroke:#afb4b7" stroke-linecap="round" marker-end="url(#arrowhead_arr_6P5WIxA1urcWPAvPtp2wI)" d="M 2776 2589.5 L 2746.5 2589.5 M 2703.5 2589.5 L 2674 2589.5  " fill="none" pointer-events="stroke" stroke-linejoin="round"></path><path style="stroke-width:4px;stroke:transparent" d="M 2776 2589.5 L 2746.5 2589.5 M 2703.5 2589.5 L 2674 2589.5  " fill="none" pointer-events="stroke"></path><path id="arr_6P5WIxA1urcWPAvPtp2wI-label" d="M 2703.5 2589.5 L 2746.5 2589.5  "></path><text font-size="8" dominant-baseline="middle"><textPath href="#arr_6P5WIxA1urcWPAvPtp2wI-label" alignment-baseline="middle" dominant-baseline="middle" startOffset="3">subscribe</textPath></text><marker id="arrowhead_src_arr_yKjjvpMYnv7J4kXsHatXs" refX="4" refY="3" orient="auto" markerWidth="8" markerHeight="8"><path d="M2.91922181,1.64495663 L4.49787879,4.07365967 C4.64837316,4.30518948 4.58268096,4.61488128 4.35115115,4.76537565 C4.27004602,4.81809399 4.17538993,4.84615385 4.07865698,4.84615385 L0.921343022,4.84615385 C0.645200647,4.84615385 0.421343022,4.62229622 0.421343022,4.34615385 C0.421343022,4.24942089 0.44940288,4.1547648 0.502121214,4.07365967 L2.08077819,1.64495663 C2.23127257,1.41342682 2.54096436,1.34773462 2.77249418,1.498229 C2.83112579,1.53633954 2.88111126,1.58632502 2.91922181,1.64495663 Z" fill="#afb4b7" transform="translate(2.500000, 2.923077) rotate(270.000000) translate(-2.500000, -2.923077)"></path></marker><path style="stroke-width:2px;stroke:#afb4b7" stroke-linecap="round" marker-start="url(#arrowhead_src_arr_yKjjvpMYnv7J4kXsHatXs)" d="M 2640 2356 L 2640 2343.96875 M 2640 2309.03125 L 2640 2297  " fill="none" pointer-events="stroke" stroke-linejoin="round"></path><path style="stroke-width:4px;stroke:transparent" d="M 2640 2356 L 2640 2343.96875 M 2640 2309.03125 L 2640 2297  " fill="none" pointer-events="stroke"></path><path id="arr_yKjjvpMYnv7J4kXsHatXs-label" d="M 2640 2343.96875 L 2640 2309.03125  "></path><text font-size="8" dominant-baseline="middle"><textPath href="#arr_yKjjvpMYnv7J4kXsHatXs-label" alignment-baseline="middle" dominant-baseline="middle" startOffset="3">request</textPath></text><marker id="arrowhead_arr_0rl15PuUGW2iuwQGuEahT" refX="1" refY="3" orient="auto" markerWidth="8" markerHeight="8"><path d="M2.91922181,1.64495663 L4.49787879,4.07365967 C4.64837316,4.30518948 4.58268096,4.61488128 4.35115115,4.76537565 C4.27004602,4.81809399 4.17538993,4.84615385 4.07865698,4.84615385 L0.921343022,4.84615385 C0.645200647,4.84615385 0.421343022,4.62229622 0.421343022,4.34615385 C0.421343022,4.24942089 0.44940288,4.1547648 0.502121214,4.07365967 L2.08077819,1.64495663 C2.23127257,1.41342682 2.54096436,1.34773462 2.77249418,1.498229 C2.83112579,1.53633954 2.88111126,1.58632502 2.91922181,1.64495663 Z" fill="#afb4b7" transform="translate(2.500000, 2.923077) rotate(90.000000) translate(-2.500000, -2.923077)"></path></marker><path style="stroke-width:2px;stroke:#afb4b7" stroke-linecap="round" marker-end="url(#arrowhead_arr_0rl15PuUGW2iuwQGuEahT)" d="M 2669 2580.5 L 2699.8 2580.5 M 2740.2 2580.5 L 2771 2580.5  " fill="none" pointer-events="stroke" stroke-linejoin="round"></path><path style="stroke-width:4px;stroke:transparent" d="M 2669 2580.5 L 2699.8 2580.5 M 2740.2 2580.5 L 2771 2580.5  " fill="none" pointer-events="stroke"></path><path id="arr_0rl15PuUGW2iuwQGuEahT-label" d="M 2699.8 2580.5 L 2740.2 2580.5  "></path><text font-size="8" dominant-baseline="middle"><textPath href="#arr_0rl15PuUGW2iuwQGuEahT-label" alignment-baseline="middle" dominant-baseline="middle" startOffset="3">consume</textPath></text><marker id="arrowhead_arr_MDKjB3nfDwJA1csFCby7C" refX="1" refY="3" orient="auto" markerWidth="8" markerHeight="8"><path d="M2.91922181,1.64495663 L4.49787879,4.07365967 C4.64837316,4.30518948 4.58268096,4.61488128 4.35115115,4.76537565 C4.27004602,4.81809399 4.17538993,4.84615385 4.07865698,4.84615385 L0.921343022,4.84615385 C0.645200647,4.84615385 0.421343022,4.62229622 0.421343022,4.34615385 C0.421343022,4.24942089 0.44940288,4.1547648 0.502121214,4.07365967 L2.08077819,1.64495663 C2.23127257,1.41342682 2.54096436,1.34773462 2.77249418,1.498229 C2.83112579,1.53633954 2.88111126,1.58632502 2.91922181,1.64495663 Z" fill="#afb4b7" transform="translate(2.500000, 2.923077) rotate(90.000000) translate(-2.500000, -2.923077)"></path></marker><path style="stroke-width:2px;stroke:#afb4b7" stroke-linecap="round" marker-end="url(#arrowhead_arr_MDKjB3nfDwJA1csFCby7C)" d="M 2474 2420 L 2434.925 2420 M 2404.075 2420 L 2369 2420 C 2367 2420 2365 2422 2365 2424 L 2365 2551  " fill="none" pointer-events="stroke" stroke-linejoin="round"></path><path style="stroke-width:4px;stroke:transparent" d="M 2474 2420 L 2434.925 2420 M 2404.075 2420 L 2369 2420 C 2367 2420 2365 2422 2365 2424 L 2365 2551  " fill="none" pointer-events="stroke"></path><path id="arr_MDKjB3nfDwJA1csFCby7C-label" d="M 2404.075 2420 L 2434.925 2420  "></path><text font-size="8" dominant-baseline="middle"><textPath href="#arr_MDKjB3nfDwJA1csFCby7C-label" alignment-baseline="middle" dominant-baseline="middle" startOffset="3">invoke</textPath></text></g></svg>